<svg width="78" height="78" viewBox="0 0 78 78" fill="none" xmlns="http://www.w3.org/2000/svg">
<g clip-path="url(#clip0_289_15846)">
<path d="M78 0H0V78H78V0Z" fill="#1B1F23"/>
<path d="M39.0007 65.0676C53.4328 65.0676 65.1323 53.3681 65.1323 38.936C65.1323 24.5039 53.4328 12.8044 39.0007 12.8044C24.5686 12.8044 12.8691 24.5039 12.8691 38.936C12.8691 53.3681 24.5686 65.0676 39.0007 65.0676Z" fill="#1B1F23"/>
<path d="M39.0005 12.3083C24.2772 12.3083 12.3525 24.233 12.3525 38.9563C12.3525 50.7483 19.9809 60.7073 30.5733 64.2392C31.9056 64.4716 32.4048 63.6729 32.4048 62.974C32.4048 62.3407 32.372 60.2425 32.372 58.0101C25.6765 59.2425 23.9449 56.3783 23.4114 54.8792C23.1119 54.1132 21.8124 51.7483 20.6798 51.1149C19.7469 50.6157 18.4147 49.3833 20.6471 49.349C22.7453 49.3162 24.2444 51.2803 24.7436 52.0805C27.1413 56.1116 30.9727 54.979 32.5046 54.2786C32.7371 52.547 33.4375 51.3801 34.2035 50.714C28.2739 50.0479 22.0791 47.75 22.0791 37.5569C22.0791 34.6585 23.1119 32.2607 24.8107 30.395C24.5439 29.7289 23.6111 26.9973 25.0775 23.3329C25.0775 23.3329 27.3098 22.634 32.4063 26.0644C34.5389 25.4654 36.804 25.1643 39.0691 25.1643C41.3342 25.1643 43.5993 25.4638 45.7319 26.0644C50.8284 22.5997 53.0607 23.3329 53.0607 23.3329C54.5271 26.9973 53.5943 29.7289 53.3275 30.395C55.0263 32.2607 56.0591 34.6257 56.0591 37.5569C56.0591 47.7827 49.83 50.0479 43.9004 50.714C44.8661 51.547 45.6991 53.146 45.6991 55.6436C45.6991 59.2082 45.6663 62.0723 45.6663 62.9725C45.6663 63.6713 46.1655 64.5044 47.4978 64.2376C58.0231 60.7073 65.6515 50.714 65.6515 38.9547C65.6484 24.233 53.7237 12.3083 39.0005 12.3083Z" fill="white"/>
</g>
<defs>
<clipPath id="clip0_289_15846">
<rect width="78" height="78" rx="10" fill="white"/>
</clipPath>
</defs>
</svg>
