<svg width="48" height="51" viewBox="0 0 48 51" fill="none" xmlns="http://www.w3.org/2000/svg">
<g filter="url(#filter0_d_267_237)">
<path d="M5.59375 6.46875C5.59375 5.43322 6.43322 4.59375 7.46875 4.59375H40.5312C41.5668 4.59375 42.4062 5.43322 42.4062 6.46875V39.5312C42.4062 40.5668 41.5668 41.4062 40.5312 41.4062H7.46875C6.43322 41.4062 5.59375 40.5668 5.59375 39.5312V6.46875Z" fill="black" stroke="black" stroke-width="2" stroke-linejoin="round"/>
<path fill-rule="evenodd" clip-rule="evenodd" d="M16.0938 5.03125C15.2998 5.03125 14.6562 5.67484 14.6562 6.46875V39.5312C14.6562 40.3252 15.2998 40.9688 16.0937 40.9688H40.5312C41.3252 40.9688 41.9688 40.3252 41.9688 39.5312V6.46875C41.9688 5.67484 41.3252 5.03125 40.5312 5.03125H16.0938ZM29.75 18.6875C29.75 17.9407 29.3704 17.2826 28.7935 16.8956C28.4984 17.1589 28.3125 17.5421 28.3125 17.9688C28.3125 18.3657 27.9907 18.6875 27.5938 18.6875H20.2009C19.5204 18.6875 18.9688 18.1358 18.9688 17.4554C18.9688 13.3724 22.2786 10.0625 26.3616 10.0625H30.4688C35.2322 10.0625 39.0938 13.924 39.0938 18.6875C39.0938 23.451 35.2322 27.3125 30.4688 27.3125C30.4688 28.5034 29.5034 29.4688 28.3125 29.4688H23.2812C22.0904 29.4688 21.125 28.5034 21.125 27.3125V25.1562C21.125 22.7745 23.0558 20.8438 25.4375 20.8438H27.5938C28.7846 20.8438 29.75 19.8784 29.75 18.6875ZM28.5392 31.6317C28.2387 31.1481 27.7365 30.9062 27.2344 30.9062H24.3594C23.8572 30.9062 23.355 31.1481 23.0545 31.6317L22.7824 32.0696C22.6578 32.27 22.4888 32.4391 22.2884 32.5636L21.8504 32.8358C20.8832 33.4368 20.8832 34.8444 21.8504 35.4455L22.2884 35.7176C22.4888 35.8422 22.6578 36.0112 22.7824 36.2116L23.0545 36.6496C23.355 37.1332 23.8572 37.375 24.3594 37.375H27.2344C27.7365 37.375 28.2387 37.1332 28.5392 36.6496L28.8114 36.2116C28.9359 36.0112 29.105 35.8422 29.3054 35.7176L29.7433 35.4455C30.7106 34.8444 30.7106 33.4368 29.7433 32.8358L29.3054 32.5636C29.105 32.4391 28.9359 32.27 28.8114 32.0696L28.5392 31.6317Z" fill="#D678EB"/>
<path d="M10.3438 6.46875C10.3438 5.67484 10.9873 5.03125 11.7812 5.03125C12.5752 5.03125 13.2188 5.67484 13.2188 6.46875V39.5312C13.2188 40.3252 12.5752 40.9688 11.7812 40.9688C10.9873 40.9688 10.3438 40.3252 10.3438 39.5312V6.46875Z" fill="#D678EB"/>
<path d="M27.4212 32.3267L27.6934 32.7646C27.9247 33.1368 28.2386 33.4508 28.6108 33.6821L29.0488 33.9542C29.1869 34.0401 29.1869 34.2412 29.0488 34.327L28.6108 34.5992C28.2386 34.8305 27.9247 35.1444 27.6934 35.5166L27.4212 35.9546C27.3354 36.0927 27.1343 36.0927 27.0484 35.9546L26.7763 35.5166C26.545 35.1444 26.231 34.8305 25.8588 34.5992L25.4209 34.327C25.2827 34.2412 25.2827 34.0401 25.4209 33.9542L25.8588 33.6821C26.231 33.4508 26.545 33.1368 26.7763 32.7646L27.0484 32.3267C27.1343 32.1885 27.3354 32.1885 27.4212 32.3267Z" fill="#F1EEE1"/>
<path d="M29.0317 27.3125C29.0317 26.5186 29.6753 25.875 30.4692 25.875C34.4387 25.875 37.6567 22.657 37.6567 18.6875C37.6567 14.718 34.4387 11.5 30.4692 11.5H29.237C26.0167 11.5 23.3934 14.056 23.2852 17.25H26.966C27.2852 16.01 28.4108 15.0938 29.7504 15.0938H30.4692C32.454 15.0938 34.0629 16.7027 34.0629 18.6875C34.0629 20.6723 32.454 22.2812 30.4692 22.2812H28.3129C26.7251 22.2812 25.4379 23.5684 25.4379 25.1562V27.3125C25.4379 27.7095 25.7597 28.0312 26.1567 28.0312H28.3129C28.7099 28.0312 29.0317 27.7095 29.0317 27.3125Z" fill="#F1EEE1"/>
</g>
<defs>
<filter id="filter0_d_267_237" x="-3" y="0" width="54" height="54" filterUnits="userSpaceOnUse" color-interpolation-filters="sRGB">
<feFlood flood-opacity="0" result="BackgroundImageFix"/>
<feColorMatrix in="SourceAlpha" type="matrix" values="0 0 0 0 0 0 0 0 0 0 0 0 0 0 0 0 0 0 127 0" result="hardAlpha"/>
<feOffset dy="4"/>
<feGaussianBlur stdDeviation="2"/>
<feComposite in2="hardAlpha" operator="out"/>
<feColorMatrix type="matrix" values="0 0 0 0 0 0 0 0 0 0 0 0 0 0 0 0 0 0 0.25 0"/>
<feBlend mode="normal" in2="BackgroundImageFix" result="effect1_dropShadow_267_237"/>
<feBlend mode="normal" in="SourceGraphic" in2="effect1_dropShadow_267_237" result="shape"/>
</filter>
</defs>
</svg>
