<svg width="54" height="51" viewBox="0 0 54 51" fill="none" xmlns="http://www.w3.org/2000/svg">
<g filter="url(#filter0_d_267_245)">
<path d="M23.4062 5.03125C21.8184 5.03125 20.5312 6.31843 20.5312 7.90625V9.34375H10.4688C8.88093 9.34375 7.59375 10.6309 7.59375 12.2187V39.5312C7.59375 41.1191 8.88093 42.4062 10.4688 42.4062H42.8125C44.4003 42.4062 45.6875 41.1191 45.6875 39.5312V32.2348C46.2051 32.0737 46.6763 31.7339 46.9985 31.2153L47.4219 30.5341C47.6156 30.2223 47.8785 29.9593 48.1903 29.7656L48.8716 29.3423C50.3761 28.4073 50.3761 26.2177 48.8716 25.2827L48.1903 24.8594C47.8785 24.6657 47.6156 24.4027 47.4219 24.0909L46.9985 23.4097C46.6763 22.8911 46.2051 22.5513 45.6875 22.3902V12.2188C45.6875 10.6309 44.4003 9.34375 42.8125 9.34375H34.1875V7.90625C34.1875 6.31843 32.9003 5.03125 31.3125 5.03125H23.4062Z" fill="black"/>
<path d="M7.26857 1.17748C7.52 0.565841 8.38624 0.565841 8.63768 1.17748L9.12943 2.37367C9.20459 2.55649 9.34975 2.70165 9.53257 2.77681L10.7288 3.26855C11.3404 3.51999 11.3404 4.38622 10.7288 4.63766L9.53257 5.1294C9.34975 5.20455 9.20459 5.34972 9.12943 5.53254L8.63768 6.72873C8.38624 7.34036 7.52 7.34036 7.26857 6.72873L6.77682 5.53254C6.70166 5.34972 6.5565 5.20455 6.37368 5.1294L5.17748 4.63766C4.56584 4.38622 4.56584 3.51999 5.17748 3.26855L6.37368 2.77681C6.5565 2.70165 6.70166 2.55649 6.77682 2.37367L7.26857 1.17748Z" fill="black"/>
<path d="M45.3456 3.34492C45.6032 2.71836 46.4906 2.71836 46.7481 3.34492L46.8101 3.49566C46.8871 3.68294 47.0358 3.83164 47.2231 3.90863L47.3738 3.9706C48.0004 4.22817 48.0004 5.11553 47.3738 5.3731L47.2231 5.43507C47.0358 5.51206 46.8871 5.66076 46.8101 5.84804L46.7481 5.99879C46.4906 6.62534 45.6032 6.62534 45.3456 5.99879L45.2836 5.84805C45.2067 5.66076 45.0579 5.51206 44.8707 5.43507L44.7199 5.3731C44.0934 5.11553 44.0934 4.22817 44.7199 3.9706L44.8707 3.90863C45.0579 3.83164 45.2067 3.68294 45.2836 3.49566L45.3456 3.34492Z" fill="black"/>
<path fill-rule="evenodd" clip-rule="evenodd" d="M14.0625 39.5312V17.9688H44.25V22.2812H41.375C40.5939 22.2812 39.8127 22.6574 39.3452 23.4097L38.9219 24.0909C38.7282 24.4027 38.4652 24.6657 38.1534 24.8594L37.4722 25.2827C35.9676 26.2177 35.9676 28.4073 37.4722 29.3423L38.1534 29.7656C38.4652 29.9593 38.7282 30.2223 38.9219 30.5341L39.3452 31.2153C39.8127 31.9676 40.5939 32.3438 41.375 32.3438H44.25V39.5313C44.25 40.3252 43.6064 40.9688 42.8125 40.9688H15.5C14.7061 40.9688 14.0625 40.3252 14.0625 39.5312ZM18.375 23.7188C18.375 22.9248 19.0186 22.2812 19.8125 22.2812H31.3125C32.1064 22.2812 32.75 22.9248 32.75 23.7188V34.5C32.75 35.2939 32.1064 35.9375 31.3125 35.9375H19.8125C19.0186 35.9375 18.375 35.2939 18.375 34.5V23.7188Z" fill="#D678EB"/>
<path d="M23.1667 31.625H27.9583C29.6481 31.625 31.046 32.8745 31.2785 34.5H19.8465C20.079 32.8745 21.4769 31.625 23.1667 31.625Z" fill="#F8EBEB"/>
<path d="M27.7188 27.3125C27.7188 28.5034 26.7534 29.4688 25.5625 29.4688C24.3716 29.4688 23.4062 28.5034 23.4062 27.3125C23.4062 26.1216 24.3716 25.1562 25.5625 25.1562C26.7534 25.1562 27.7188 26.1216 27.7188 27.3125Z" fill="#F8EBEB"/>
<path d="M45.7798 24.1697L46.2027 24.8502C46.5124 25.3486 46.9327 25.7688 47.431 26.0785L48.1116 26.5014C48.7128 26.875 48.7128 27.75 48.1116 28.1236L47.431 28.5465C46.9327 28.8562 46.5124 29.2764 46.2027 29.7748L45.7798 30.4553C45.4062 31.0566 44.5313 31.0566 44.1577 30.4553L43.7348 29.7748C43.4251 29.2764 43.0048 28.8562 42.5065 28.5465L41.8259 28.1236C41.2247 27.75 41.2247 26.875 41.8259 26.5014L42.5065 26.0785C43.0048 25.7688 43.4251 25.3486 43.7348 24.8502L44.1577 24.1697C44.5313 23.5684 45.4062 23.5684 45.7798 24.1697Z" fill="#F8EBEB"/>
<path d="M23.4062 10.7812H15.5C14.7061 10.7812 14.0625 11.4248 14.0625 12.2188V16.5312H44.25V12.2188C44.25 11.4248 43.6064 10.7812 42.8125 10.7812H34.1875V11.5C34.1875 12.6909 33.2221 13.6562 32.0312 13.6562H25.5625C24.3716 13.6562 23.4062 12.6909 23.4062 11.5V10.7812Z" fill="#F8EBEB"/>
<path d="M27.7188 6.46875H31.3125C32.1064 6.46875 32.75 7.11234 32.75 7.90625V11.5C32.75 11.897 32.4282 12.2188 32.0312 12.2188H27C26.603 12.2188 26.2812 11.897 26.2812 11.5V7.90625C26.2812 7.11234 26.9248 6.46875 27.7188 6.46875Z" fill="#F8EBEB"/>
</g>
<defs>
<filter id="filter0_d_267_245" x="0" y="0" width="54" height="54" filterUnits="userSpaceOnUse" color-interpolation-filters="sRGB">
<feFlood flood-opacity="0" result="BackgroundImageFix"/>
<feColorMatrix in="SourceAlpha" type="matrix" values="0 0 0 0 0 0 0 0 0 0 0 0 0 0 0 0 0 0 127 0" result="hardAlpha"/>
<feOffset dy="4"/>
<feGaussianBlur stdDeviation="2"/>
<feComposite in2="hardAlpha" operator="out"/>
<feColorMatrix type="matrix" values="0 0 0 0 0 0 0 0 0 0 0 0 0 0 0 0 0 0 0.25 0"/>
<feBlend mode="normal" in2="BackgroundImageFix" result="effect1_dropShadow_267_245"/>
<feBlend mode="normal" in="SourceGraphic" in2="effect1_dropShadow_267_245" result="shape"/>
</filter>
</defs>
</svg>
