<svg width="51" height="51" viewBox="0 0 51 51" fill="none" xmlns="http://www.w3.org/2000/svg">
<g filter="url(#filter0_d_248_5888)">
<path d="M22.4062 12.5781V20.125H42.5312C44.1191 20.125 45.4062 21.4122 45.4062 23V26.3885C46.31 27.6342 46.8438 29.2146 46.8438 30.9062C46.8438 32.5979 46.31 34.1783 45.4062 35.424V39.5312C45.4062 41.1191 44.1191 42.4062 42.5312 42.4062H9.46875C7.88093 42.4062 6.59375 41.1191 6.59375 39.5312V23C6.59375 21.4122 7.88093 20.125 9.46875 20.125H13.7812V12.5781C13.7812 5.63142 19.4127 0 26.3594 0C33.3061 0 38.9375 5.63142 38.9375 12.5781V15.0938C38.9375 16.2846 37.9721 17.25 36.7812 17.25H32.4688C31.2779 17.25 30.3125 16.2846 30.3125 15.0938V12.5781C30.3125 10.3949 28.5426 8.625 26.3594 8.625C24.1761 8.625 22.4062 10.3949 22.4062 12.5781Z" fill="black"/>
<path d="M6.98732 4.05248C7.23875 3.44084 8.10499 3.44084 8.35643 4.05248L8.84818 5.24868C8.92334 5.4315 9.0685 5.57666 9.25132 5.65182L10.4475 6.14357C11.0592 6.39501 11.0592 7.26124 10.4475 7.51268L9.25132 8.00443C9.0685 8.07959 8.92334 8.22475 8.84818 8.40757L8.35643 9.60377C8.10499 10.2154 7.23875 10.2154 6.98732 9.60377L6.49557 8.40757C6.42041 8.22475 6.27525 8.07959 6.09243 8.00443L4.89623 7.51268C4.28459 7.26124 4.28459 6.39501 4.89623 6.14357L6.09243 5.65182C6.27525 5.57666 6.42041 5.4315 6.49557 5.24868L6.98732 4.05248Z" fill="black"/>
<path d="M43.6377 1.18141C43.8913 0.564528 44.765 0.564528 45.0186 1.18142L45.297 1.85885C45.3728 2.04325 45.5193 2.18965 45.7036 2.26546L46.3811 2.54394C46.998 2.79754 46.998 3.67121 46.3811 3.92481L45.7036 4.20329C45.5193 4.2791 45.3728 4.4255 45.297 4.6099L45.0186 5.28733C44.765 5.90422 43.8913 5.90422 43.6377 5.28733L43.3592 4.6099C43.2834 4.4255 43.137 4.2791 42.9526 4.20329L42.2752 3.92481C41.6583 3.67121 41.6583 2.79754 42.2752 2.54394L42.9526 2.26546C43.137 2.18965 43.2834 2.04325 43.3592 1.85885L43.6377 1.18141Z" fill="black"/>
<path d="M44.3456 13.4074C44.6032 12.7809 45.4906 12.7809 45.7481 13.4074L45.8101 13.5582C45.8871 13.7455 46.0358 13.8942 46.2231 13.9711L46.3738 14.0331C47.0004 14.2907 47.0004 15.1781 46.3738 15.4356L46.2231 15.4976C46.0358 15.5746 45.8871 15.7233 45.8101 15.9106L45.7481 16.0613C45.4906 16.6879 44.6032 16.6879 44.3456 16.0613L44.2836 15.9106C44.2067 15.7233 44.0579 15.5746 43.8707 15.4976L43.7199 15.4356C43.0934 15.1781 43.0934 14.2907 43.7199 14.0331L43.8707 13.9711C44.0579 13.8942 44.2067 13.7455 44.2836 13.5582L44.3456 13.4074Z" fill="black"/>
<path d="M20.9688 21.5625H42.5312C43.3252 21.5625 43.9688 22.2061 43.9688 23V24.925C42.9495 24.1659 41.7186 23.7188 40.375 23.7188C38.3728 23.7188 36.6113 24.7221 35.4367 26.2628C34.6047 25.567 33.5787 25.1562 32.4688 25.1562C29.6901 25.1562 27.4375 27.7306 27.4375 30.9062C27.4375 34.0819 29.6901 36.6562 32.4688 36.6562C33.5787 36.6562 34.6047 36.2455 35.4367 35.5497C36.6113 37.0904 38.3728 38.0938 40.375 38.0938C41.7186 38.0938 42.9495 37.6466 43.9688 36.8875V39.5312C43.9688 40.3252 43.3252 40.9688 42.5312 40.9688H20.9687C20.1748 40.9688 19.5312 40.3252 19.5312 39.5312V23C19.5312 22.2061 20.1748 21.5625 20.9688 21.5625Z" fill="#D678EB"/>
<path d="M40.375 29.4688C39.8967 29.4688 39.2969 29.9841 39.2969 30.9062C39.2969 31.8284 39.8967 32.3438 40.375 32.3438C40.8533 32.3438 41.4531 31.8284 41.4531 30.9062C41.4531 29.9841 40.8533 29.4688 40.375 29.4688Z" fill="#D678EB"/>
<path d="M15.2188 12.5781C15.2188 6.42533 20.2066 1.4375 26.3594 1.4375C30.5567 1.4375 34.2119 3.75872 36.1113 7.1875H26.3594C23.3822 7.1875 20.9688 9.60097 20.9688 12.5781V20.125H15.2188V12.5781Z" fill="#F1EEE1"/>
<path fill-rule="evenodd" clip-rule="evenodd" d="M35.8802 28.3217C36.7256 26.4077 38.4475 25.1562 40.375 25.1562C43.0764 25.1562 45.4062 27.6487 45.4062 30.9062C45.4062 34.1638 43.0764 36.6562 40.375 36.6562C38.4475 36.6562 36.7256 35.4048 35.8802 33.4908C35.7651 33.2305 35.5073 33.0625 35.2227 33.0625H32.8281C31.6373 33.0625 30.6719 32.0971 30.6719 30.9062C30.6719 29.7154 31.6373 28.75 32.8281 28.75H35.2227C35.5073 28.75 35.7651 28.582 35.8802 28.3217ZM40.375 28.0312C38.8685 28.0312 37.8594 29.4467 37.8594 30.9062C37.8594 32.3658 38.8685 33.7812 40.375 33.7812C41.8815 33.7812 42.8906 32.3658 42.8906 30.9062C42.8906 29.4467 41.8815 28.0312 40.375 28.0312Z" fill="#F1EEE1"/>
</g>
<defs>
<filter id="filter0_d_248_5888" x="-1" y="0" width="54" height="54" filterUnits="userSpaceOnUse" color-interpolation-filters="sRGB">
<feFlood flood-opacity="0" result="BackgroundImageFix"/>
<feColorMatrix in="SourceAlpha" type="matrix" values="0 0 0 0 0 0 0 0 0 0 0 0 0 0 0 0 0 0 127 0" result="hardAlpha"/>
<feOffset dy="4"/>
<feGaussianBlur stdDeviation="2"/>
<feComposite in2="hardAlpha" operator="out"/>
<feColorMatrix type="matrix" values="0 0 0 0 0 0 0 0 0 0 0 0 0 0 0 0 0 0 0.25 0"/>
<feBlend mode="normal" in2="BackgroundImageFix" result="effect1_dropShadow_248_5888"/>
<feBlend mode="normal" in="SourceGraphic" in2="effect1_dropShadow_248_5888" result="shape"/>
</filter>
</defs>
</svg>
