<svg width="49" height="51" viewBox="0 0 49 51" fill="none" xmlns="http://www.w3.org/2000/svg">
<g filter="url(#filter0_d_245_5863)">
<path d="M12.6045 8.41536C12.0947 7.53243 10.8583 7.46785 10.5015 8.42292C9.79614 10.3115 9.90857 12.489 10.9953 14.3713C12.4294 16.8552 15.157 18.1268 17.836 17.8263L20.5691 22.5602C19.9688 22.5602 19.6371 22.5602 19.25 22.5602C17.8125 22.5602 17.1795 22.8742 16.5508 23.963L7.71032 39.2752C6.87809 40.7167 7.88245 42.4142 9.5469 42.4063L10.4718 42.4018C10.5223 42.405 10.5733 42.4065 10.625 42.4063L11.55 42.4018C11.6004 42.405 11.6515 42.4065 11.7031 42.4063L12.2967 42.4034C12.338 42.4055 12.3798 42.4065 12.4219 42.4063H22.435C22.6213 42.4054 22.8438 42.4063 22.9964 42.4062H29.021C29.3125 42.4063 29.4982 42.406 29.6719 42.4063L40.0741 42.4187C41.7488 42.4207 42.6485 40.6429 41.7907 39.2046L32.6462 23.8724C32.5215 23.6634 32.3744 23.4758 32.2098 23.3111L35.5902 17.456C35.7061 17.4465 35.8208 17.4288 35.9336 17.4031C37.0896 17.6688 38.3241 17.0495 38.7545 15.8666L41.1982 9.14948C41.6007 8.04332 41.1509 6.80789 40.1315 6.21934L38.2049 5.10699C37.6585 4.79155 36.8594 4.8086 36.4876 4.8086C36.1406 4.8086 35.7813 4.8086 35.4219 4.8086C35.0625 4.8086 34.9698 4.8086 34.6568 4.8086C34.3438 4.8086 33.9844 4.8086 33.5787 4.8086C32.5469 4.8086 31.7782 4.93653 31.1809 5.64824L26.5855 11.1232C25.7134 12.1622 25.8752 13.6829 26.8668 14.5271L24.6297 18.402L22.682 15.0285C24.2817 12.8586 24.5443 9.86069 23.1102 7.37676C22.0234 5.49445 20.1939 4.30835 18.2056 3.97496C17.2001 3.80636 16.6378 4.90947 17.1475 5.79239L18.8871 8.80536C19.6114 10.0599 19.1816 11.6641 17.927 12.3884C16.6725 13.1127 15.0683 12.6828 14.344 11.4283L12.6045 8.41536Z" fill="black"/>
<path d="M25.3769 0.469915C25.6344 -0.156638 26.5218 -0.156639 26.7794 0.469915L26.8414 0.620659C26.9183 0.80794 27.067 0.956643 27.2543 1.03363L27.4051 1.0956C28.0316 1.35317 28.0316 2.24053 27.4051 2.4981L27.2543 2.56007C27.067 2.63706 26.9183 2.78576 26.8414 2.97304L26.7794 3.12379C26.5218 3.75034 25.6344 3.75034 25.3769 3.12379L25.3149 2.97305C25.2379 2.78576 25.0892 2.63706 24.9019 2.56007L24.7512 2.4981C24.1246 2.24053 24.1246 1.35317 24.7512 1.0956L24.9019 1.03363C25.0892 0.956643 25.2379 0.80794 25.3149 0.620659L25.3769 0.469915Z" fill="black"/>
<path d="M6.70607 19.1462C6.9575 18.5346 7.82374 18.5346 8.07518 19.1462L8.56693 20.3424C8.64209 20.5252 8.78725 20.6704 8.97007 20.7456L10.1663 21.2373C10.7779 21.4887 10.7779 22.355 10.1663 22.6064L8.97007 23.0981C8.78725 23.1733 8.64209 23.3185 8.56693 23.5013L8.07518 24.6975C7.82374 25.3091 6.9575 25.3091 6.70607 24.6975L6.21432 23.5013C6.13916 23.3185 5.994 23.1733 5.81118 23.0981L4.61498 22.6064C4.00334 22.355 4.00334 21.4887 4.61498 21.2373L5.81118 20.7456C5.994 20.6704 6.13916 20.5252 6.21432 20.3424L6.70607 19.1462Z" fill="black"/>
<path d="M41.2002 24.9002C41.4538 24.2833 42.3275 24.2833 42.5811 24.9002L42.8595 25.5776C42.9353 25.762 43.0818 25.9084 43.2661 25.9842L43.9436 26.2627C44.5605 26.5163 44.5605 27.3899 43.9436 27.6435L43.2661 27.922C43.0818 27.9978 42.9353 28.1442 42.8595 28.3286L42.5811 29.006C42.3275 29.6229 41.4538 29.6229 41.2002 29.006L40.9217 28.3286C40.8459 28.1442 40.6995 27.9978 40.5151 27.922L39.8377 27.6435C39.2208 27.3899 39.2208 26.5163 39.8377 26.2627L40.5151 25.9842C40.6995 25.9084 40.8459 25.762 40.9217 25.5776L41.2002 24.9002Z" fill="black"/>
<path d="M12.9079 39.9941L18.6996 29.9626C18.8898 30.1308 19.101 30.2813 19.3319 30.4102L27.8952 35.1883C27.9353 35.2106 27.9757 35.2322 28.0163 35.2529L24.7193 40.366C24.4559 40.7744 24.004 41.0222 23.518 41.0245L13.5338 41.0722C12.979 41.0749 12.6305 40.4746 12.9079 39.9941Z" fill="#D678EB"/>
<path d="M23.7119 24.1579L30.7228 28.2123C31.4346 28.624 31.6567 29.5477 31.2099 30.2379L29.1078 33.485C28.9018 33.8031 28.4842 33.9067 28.1535 33.7216L20.0036 29.1607C19.6539 28.965 19.5318 28.5211 19.7321 28.1741L21.7474 24.6836C22.1445 23.9957 23.0243 23.7603 23.7119 24.1579Z" fill="#D678EB"/>
<path d="M31.7522 13.4326C32.2805 13.8823 32.4122 14.6451 32.0653 15.2459L26.8359 24.3035L29.1911 25.6654L34.4214 16.6062C34.7683 16.0054 35.4948 15.7381 36.1484 15.9707C36.6466 16.148 37.216 15.8921 37.404 15.3752L39.8478 8.65805C40.0118 8.20739 39.8285 7.70406 39.4132 7.46429L37.4866 6.35194C37.0713 6.11216 36.5438 6.20514 36.2355 6.57245L31.6401 12.0474C31.2865 12.4687 31.3495 13.0898 31.7522 13.4326Z" fill="#F1EEE1"/>
</g>
<defs>
<filter id="filter0_d_245_5863" x="-2" y="0" width="54" height="54" filterUnits="userSpaceOnUse" color-interpolation-filters="sRGB">
<feFlood flood-opacity="0" result="BackgroundImageFix"/>
<feColorMatrix in="SourceAlpha" type="matrix" values="0 0 0 0 0 0 0 0 0 0 0 0 0 0 0 0 0 0 127 0" result="hardAlpha"/>
<feOffset dy="4"/>
<feGaussianBlur stdDeviation="2"/>
<feComposite in2="hardAlpha" operator="out"/>
<feColorMatrix type="matrix" values="0 0 0 0 0 0 0 0 0 0 0 0 0 0 0 0 0 0 0.25 0"/>
<feBlend mode="normal" in2="BackgroundImageFix" result="effect1_dropShadow_245_5863"/>
<feBlend mode="normal" in="SourceGraphic" in2="effect1_dropShadow_245_5863" result="shape"/>
</filter>
</defs>
</svg>
