<svg width="48" height="51" viewBox="0 0 48 51" fill="none" xmlns="http://www.w3.org/2000/svg">
<g filter="url(#filter0_d_253_5910)">
<path d="M4.59375 12.2187C4.59375 10.6309 5.88093 9.34375 7.46875 9.34375H40.5312C42.1191 9.34375 43.4062 10.6309 43.4062 12.2188V39.5312C43.4062 41.1191 42.1191 42.4062 40.5312 42.4062H7.46875C5.88093 42.4062 4.59375 41.1191 4.59375 39.5312V12.2187Z" fill="black"/>
<path fill-rule="evenodd" clip-rule="evenodd" d="M28.7553 2.15625H37.0509C37.0531 2.15625 37.0553 2.15625 37.0575 2.15626L41.5263 2.15626C43.0645 2.15626 43.9494 3.92079 43.0382 5.17105L36.8951 13.5996C36.4859 14.1612 35.8963 14.3974 35.3233 14.3733C33.0388 14.3733 35.3045 14.3742 33.1387 14.3742C32.1613 14.4032 31.1875 13.6641 31.1875 12.4781L31.1875 9.24488C31.1875 8.6552 30.9151 8.09918 30.4508 7.74097L27.6153 5.55342C26.1898 4.45364 26.9607 2.15625 28.7553 2.15625Z" fill="black"/>
<path d="M7.85644 2.61891C8.11004 2.00203 8.98371 2.00203 9.23731 2.61891L9.51579 3.29634C9.5916 3.48073 9.738 3.62714 9.9224 3.70294L10.5998 3.98143C11.2167 4.23502 11.2167 5.10868 10.5998 5.36228L9.9224 5.64076C9.738 5.71656 9.5916 5.86297 9.51579 6.04736L9.23731 6.72479C8.98371 7.34167 8.11004 7.34167 7.85644 6.72479L7.57796 6.04736C7.50215 5.86297 7.35575 5.71656 7.17135 5.64076L6.49391 5.36228C5.87703 5.10868 5.87703 4.23502 6.49392 3.98143L7.17135 3.70294C7.35575 3.62714 7.50215 3.48073 7.57796 3.29634L7.85644 2.61891Z" fill="black"/>
<path fill-rule="evenodd" clip-rule="evenodd" d="M11.0625 17.9688V39.5312C11.0625 40.3252 11.7061 40.9688 12.5 40.9688H40.5312C41.3252 40.9688 41.9688 40.3252 41.9688 39.5313V17.9688H11.0625ZM16.8125 21.5625C16.0186 21.5625 15.375 22.2061 15.375 23V35.2188C15.375 36.0127 16.0186 36.6562 16.8125 36.6562H36.2188C37.0127 36.6562 37.6562 36.0127 37.6562 35.2188V23C37.6562 22.2061 37.0127 21.5625 36.2188 21.5625H16.8125Z" fill="#D678EB"/>
<path d="M26.2665 26.2828C26.49 25.7391 27.26 25.7391 27.4835 26.2828L27.9206 27.346C27.9874 27.5085 28.1164 27.6376 28.279 27.7044L29.3422 28.1415C29.8859 28.365 29.8859 29.135 29.3422 29.3585L28.279 29.7956C28.1164 29.8624 27.9874 29.9914 27.9206 30.1539L27.4835 31.2172C27.26 31.7609 26.49 31.7609 26.2665 31.2172L25.8294 30.1539C25.7626 29.9914 25.6336 29.8624 25.471 29.7956L24.4078 29.3585C23.8641 29.135 23.8641 28.365 24.4078 28.1415L25.471 27.7044C25.6336 27.6376 25.7626 27.5085 25.8294 27.346L26.2665 26.2828Z" fill="#F1EEE1"/>
<path fill-rule="evenodd" clip-rule="evenodd" d="M31.1875 10.7812H12.5C11.7061 10.7812 11.0625 11.4248 11.0625 12.2188V16.5312H41.9688V12.2188C41.9688 11.4248 41.3252 10.7812 40.5312 10.7812H38.9493L36.8951 13.5996C36.4859 14.1612 35.8963 14.3974 35.3233 14.3733C34.1658 14.3733 34.1764 14.3736 34.1869 14.3738C34.1971 14.374 34.2072 14.3742 33.1387 14.3742C32.1613 14.4032 31.1875 13.6641 31.1875 12.4781L31.1875 10.7812ZM15.375 15.0938C16.1689 15.0938 16.8125 14.4502 16.8125 13.6562C16.8125 12.8623 16.1689 12.2188 15.375 12.2188C14.5811 12.2188 13.9375 12.8623 13.9375 13.6562C13.9375 14.4502 14.5811 15.0938 15.375 15.0938ZM21.125 13.6562C21.125 14.4502 20.4814 15.0938 19.6875 15.0938C18.8936 15.0938 18.25 14.4502 18.25 13.6562C18.25 12.8623 18.8936 12.2188 19.6875 12.2188C20.4814 12.2188 21.125 12.8623 21.125 13.6562Z" fill="#F1EEE1"/>
<path d="M41.5432 3.59383C41.8927 3.59399 42.0911 3.98228 41.8855 4.26369C40.5164 6.13696 37.1538 10.7149 35.6495 12.7624C35.4066 13.0929 34.8839 12.9247 34.876 12.5152C34.8555 11.4534 34.8297 10.0725 34.8297 9.831C34.8297 8.45846 34.1932 7.16429 33.1082 6.33053C32.7503 6.05558 31.5164 5.07326 30.632 4.3677C30.3155 4.1152 30.4894 3.60741 30.895 3.6067C33.4274 3.6023 39.2319 3.59279 41.5432 3.59383Z" fill="#F1EEE1"/>
</g>
<defs>
<filter id="filter0_d_253_5910" x="-3" y="0" width="54" height="54" filterUnits="userSpaceOnUse" color-interpolation-filters="sRGB">
<feFlood flood-opacity="0" result="BackgroundImageFix"/>
<feColorMatrix in="SourceAlpha" type="matrix" values="0 0 0 0 0 0 0 0 0 0 0 0 0 0 0 0 0 0 127 0" result="hardAlpha"/>
<feOffset dy="4"/>
<feGaussianBlur stdDeviation="2"/>
<feComposite in2="hardAlpha" operator="out"/>
<feColorMatrix type="matrix" values="0 0 0 0 0 0 0 0 0 0 0 0 0 0 0 0 0 0 0.25 0"/>
<feBlend mode="normal" in2="BackgroundImageFix" result="effect1_dropShadow_253_5910"/>
<feBlend mode="normal" in="SourceGraphic" in2="effect1_dropShadow_253_5910" result="shape"/>
</filter>
</defs>
</svg>
