<svg width="31" height="31" viewBox="0 0 31 31" fill="none" xmlns="http://www.w3.org/2000/svg">
<path d="M25.8185 30.7693H5.18152C2.32978 30.7693 0 28.4569 0 25.6263V5.14296C0 2.31244 2.32978 0 5.18152 0H25.8185C28.6702 0 31 2.31244 31 5.14296V25.6263C31 28.4695 28.683 30.7693 25.8185 30.7693Z" fill="white"/>
<path d="M15.5067 23.2885C13.3806 23.2885 11.3818 22.4671 9.87958 20.9761C8.37732 19.485 7.5498 17.5011 7.5498 15.3908C7.5498 13.2806 8.37732 11.2967 9.87958 9.8056C11.3818 8.31452 13.3806 7.49316 15.5067 7.49316C17.6328 7.49316 19.6315 8.31452 21.1338 9.8056C22.636 11.2967 23.4636 13.2806 23.4636 15.3908C23.4636 17.5011 22.636 19.485 21.1338 20.9761C19.6188 22.4671 17.6328 23.2885 15.5067 23.2885ZM15.5067 9.17379C12.0566 9.17379 9.24303 11.9538 9.24303 15.3908C9.24303 18.8153 12.0438 21.6079 15.5067 21.6079C18.9568 21.6079 21.7703 18.8279 21.7703 15.3908C21.7576 11.9664 18.9568 9.17379 15.5067 9.17379Z" fill="black"/>
<path d="M25.0141 7.23479C25.8578 7.23479 26.5418 6.55569 26.5418 5.71798C26.5418 4.88027 25.8578 4.20117 25.0141 4.20117C24.1703 4.20117 23.4863 4.88027 23.4863 5.71798C23.4863 6.55569 24.1703 7.23479 25.0141 7.23479Z" fill="black"/>
</svg>
