<svg width="31" height="31" viewBox="0 0 31 31" fill="none" xmlns="http://www.w3.org/2000/svg">
<path d="M7.00008 10.1182H0.522461V30.6212H7.00008V10.1182Z" fill="white"/>
<path d="M24.5231 9.67304C24.2843 9.64341 24.0305 9.6286 23.7768 9.61378C20.1499 9.46564 18.1052 11.5989 17.3888 12.5174C17.1947 12.7692 17.1052 12.9174 17.1052 12.9174V10.1767H10.9111V30.6797H17.1052H17.3888C17.3888 28.5909 17.3888 26.5169 17.3888 24.4281C17.3888 23.3022 17.3888 22.1763 17.3888 21.0504C17.3888 19.6579 17.2843 18.1765 17.9858 16.9024C18.5828 15.8358 19.6574 15.3025 20.8664 15.3025C24.4485 15.3025 24.5231 18.5172 24.5231 18.8135C24.5231 18.8283 24.5231 18.8431 24.5231 18.8431V30.7686H31.0007V17.3913C31.0007 12.8137 28.6574 10.1175 24.5231 9.67304Z" fill="white"/>
<path d="M3.76119 7.46641C5.83844 7.46641 7.5224 5.795 7.5224 3.73321C7.5224 1.67141 5.83844 0 3.76119 0C1.68394 0 0 1.67141 0 3.73321C0 5.795 1.68394 7.46641 3.76119 7.46641Z" fill="white"/>
</svg>
