<svg width="528" height="427" viewBox="0 0 528 427" fill="none" xmlns="http://www.w3.org/2000/svg">
<g filter="url(#filter0_d_382_478)">
<g filter="url(#filter1_d_382_478)">
<path d="M19.287 201.696C12.3275 181.916 22.3386 159.67 41.9254 152.331C46.5009 150.617 56.2156 147.194 80.3288 138.844C82.8223 137.981 85.6344 138.168 87.9465 139.385L183.995 189.947L225.073 301.093C232.314 320.685 222.62 342.504 203.171 350.071C175.933 360.669 152.767 369.259 124.914 379.011C105.527 385.799 84.2797 375.906 76.83 356.747C55.856 302.807 39.4915 259.121 19.287 201.696Z" fill="url(#paint0_linear_382_478)"/>
<path d="M19.287 201.696C12.3275 181.916 22.3386 159.67 41.9254 152.331C46.5009 150.617 56.2156 147.194 80.3288 138.844C82.8223 137.981 85.6344 138.168 87.9465 139.385L183.995 189.947L225.073 301.093C232.314 320.685 222.62 342.504 203.171 350.071C175.933 360.669 152.767 369.259 124.914 379.011C105.527 385.799 84.2797 375.906 76.83 356.747C55.856 302.807 39.4915 259.121 19.287 201.696Z" fill="url(#paint1_linear_382_478)" fill-opacity="0.2"/>
<path d="M19.287 201.696C12.3275 181.916 22.3386 159.67 41.9254 152.331C46.5009 150.617 56.2156 147.194 80.3288 138.844C82.8223 137.981 85.6344 138.168 87.9465 139.385L183.995 189.947L225.073 301.093C232.314 320.685 222.62 342.504 203.171 350.071C175.933 360.669 152.767 369.259 124.914 379.011C105.527 385.799 84.2797 375.906 76.83 356.747C55.856 302.807 39.4915 259.121 19.287 201.696Z" stroke="url(#paint2_linear_382_478)" stroke-width="3"/>
</g>
<g filter="url(#filter2_d_382_478)">
<path d="M124.661 209.075C112.498 212.645 99.6691 205.649 96.1964 193.457C90.1704 172.302 87.923 168.042 83.3315 145.251C82.3969 140.612 86.9957 136.827 91.3595 138.658C120.928 151.064 143.825 163.375 177.724 182.987C182.138 185.541 181.487 192.105 176.674 193.792C139.472 206.833 148.23 202.157 124.661 209.075Z" fill="url(#paint3_linear_382_478)"/>
</g>
<g filter="url(#filter3_d_382_478)">
<path d="M59.6851 259.905C58.4501 256.82 60.0576 253.261 63.1853 252.156L120.781 231.812C123.453 230.868 126.345 232.182 127.4 234.818C128.555 237.703 127.072 241.033 124.158 242.098L66.7707 263.075C63.9215 264.116 60.8141 262.726 59.6851 259.905Z" fill="url(#paint4_linear_382_478)"/>
</g>
<g filter="url(#filter4_f_382_478)">
<path d="M60.9336 256.104L120.835 234.171L126.006 234.793L64.2674 256.949L60.9336 256.104Z" fill="white" fill-opacity="0.59"/>
</g>
<g filter="url(#filter5_f_382_478)">
<path d="M63.666 262.932L126.578 239.191L123.743 241.495L66.255 263.427L63.666 262.932Z" fill="#000852" fill-opacity="0.54"/>
</g>
<g filter="url(#filter6_f_382_478)">
<path d="M73.2617 288.255L173.436 251.764L171.09 256.023L77.0694 290.252L73.2617 288.255Z" fill="#000852" fill-opacity="0.26"/>
</g>
<g filter="url(#filter7_f_382_478)">
<path d="M82.1709 312.765L182.346 276.275L180 280.534L85.9785 314.763L82.1709 312.765Z" fill="#000852" fill-opacity="0.26"/>
</g>
<g filter="url(#filter8_f_382_478)">
<path d="M72.8887 281.653L165.159 248.433L172.064 249.755L75.9545 283.302L72.8887 281.653Z" fill="white" fill-opacity="0.59"/>
</g>
<g filter="url(#filter9_f_382_478)">
<path d="M81.7969 306.164L174.067 272.945L180.972 274.266L84.8627 307.814L81.7969 306.164Z" fill="white" fill-opacity="0.59"/>
</g>
<g filter="url(#filter10_d_382_478)">
<path d="M69.6457 286.765C68.4248 283.55 70.0813 279.961 73.3204 278.805L167.692 245.103C170.605 244.062 173.817 245.545 174.915 248.437C176.035 251.387 174.533 254.681 171.572 255.77L77.5211 290.356C74.3566 291.519 70.8425 289.917 69.6457 286.765Z" fill="url(#paint5_linear_382_478)"/>
</g>
<g filter="url(#filter11_d_382_478)">
<path d="M78.5549 311.276C77.334 308.061 78.9905 304.472 82.2296 303.316L176.601 269.614C179.514 268.574 182.727 270.056 183.825 272.948C184.945 275.898 183.443 279.192 180.481 280.281L86.4303 314.867C83.2657 316.031 79.7517 314.428 78.5549 311.276Z" fill="url(#paint6_linear_382_478)"/>
</g>
<g filter="url(#filter12_f_382_478)">
<path d="M70.5811 281.547L165.753 246.618L173.405 246.327L75.4158 281.84L70.5811 281.547Z" fill="white" fill-opacity="0.59"/>
</g>
<g filter="url(#filter13_f_382_478)">
<path d="M79.4912 306.058L174.663 271.129L182.315 270.838L84.3259 306.351L79.4912 306.058Z" fill="white" fill-opacity="0.59"/>
</g>
</g>
<g filter="url(#filter14_d_382_478)">
<g filter="url(#filter15_d_382_478)">
<path d="M267.74 105.772C260.568 86.0688 270.338 63.7152 289.844 56.1658C294.401 54.4022 304.078 50.8744 328.1 42.2647C330.584 41.3744 333.398 41.5313 335.723 42.7234L432.312 92.2447L474.588 202.941C482.04 222.453 472.582 244.376 453.216 252.153C426.094 263.044 403.022 271.884 375.276 281.936C355.963 288.933 334.611 279.27 326.954 260.193C305.399 206.482 288.564 162.975 267.74 105.772Z" fill="url(#paint7_linear_382_478)"/>
<path d="M267.74 105.772C260.568 86.0688 270.338 63.7152 289.844 56.1658C294.401 54.4022 304.078 50.8744 328.1 42.2647C330.584 41.3744 333.398 41.5313 335.723 42.7234L432.312 92.2447L474.588 202.941C482.04 222.453 472.582 244.376 453.216 252.153C426.094 263.044 403.022 271.884 375.276 281.936C355.963 288.933 334.611 279.27 326.954 260.193C305.399 206.482 288.564 162.975 267.74 105.772Z" fill="url(#paint8_linear_382_478)" fill-opacity="0.2"/>
<path d="M267.74 105.772C260.568 86.0688 270.338 63.7152 289.844 56.1658C294.401 54.4022 304.078 50.8744 328.1 42.2647C330.584 41.3744 333.398 41.5313 335.723 42.7234L432.312 92.2447L474.588 202.941C482.04 222.453 472.582 244.376 453.216 252.153C426.094 263.044 403.022 271.884 375.276 281.936C355.963 288.933 334.611 279.27 326.954 260.193C305.399 206.482 288.564 162.975 267.74 105.772Z" stroke="url(#paint9_linear_382_478)" stroke-width="3"/>
</g>
<g filter="url(#filter16_d_382_478)">
<path d="M373.187 112.013C361.063 115.714 348.16 108.857 344.556 96.7036C338.301 75.6149 336.008 71.3786 331.171 48.6392C330.186 44.0104 334.744 40.176 339.127 41.9597C368.828 54.0458 391.856 66.1084 425.965 85.3534C430.407 87.8597 429.827 94.4305 425.032 96.1695C387.973 109.611 396.68 104.841 373.187 112.013Z" fill="url(#paint10_linear_382_478)"/>
</g>
<g filter="url(#filter17_d_382_478)">
<path d="M308.763 163.542C307.495 160.47 309.064 156.894 312.18 155.756L369.552 134.791C372.214 133.818 375.12 135.1 376.204 137.725C377.389 140.597 375.943 143.943 373.04 145.039L315.883 166.635C313.045 167.707 309.923 166.351 308.763 163.542Z" fill="url(#paint11_linear_382_478)"/>
</g>
<g filter="url(#filter18_f_382_478)">
<path d="M309.971 159.727L369.632 137.148L374.809 137.715L313.313 160.536L309.971 159.727Z" fill="white" fill-opacity="0.59"/>
</g>
<g filter="url(#filter19_f_382_478)">
<path d="M312.777 166.526L375.429 142.106L372.619 144.441L315.372 166.992L312.777 166.526Z" fill="#000852" fill-opacity="0.54"/>
</g>
<g filter="url(#filter20_f_382_478)">
<path d="M322.646 191.743L422.42 154.173L420.12 158.457L326.474 193.699L322.646 191.743Z" fill="#000852" fill-opacity="0.26"/>
</g>
<g filter="url(#filter21_f_382_478)">
<path d="M331.817 216.156L431.592 178.586L429.292 182.87L335.646 218.112L331.817 216.156Z" fill="#000852" fill-opacity="0.26"/>
</g>
<g filter="url(#filter22_f_382_478)">
<path d="M322.201 185.145L414.107 150.932L421.026 152.178L325.285 186.762L322.201 185.145Z" fill="white" fill-opacity="0.59"/>
</g>
<g filter="url(#filter23_f_382_478)">
<path d="M331.373 209.559L423.279 175.345L430.198 176.592L334.457 211.175L331.373 209.559Z" fill="white" fill-opacity="0.59"/>
</g>
<g filter="url(#filter24_d_382_478)">
<path d="M319.013 190.292C317.758 187.09 319.376 183.484 322.602 182.293L416.604 147.574C419.506 146.502 422.734 147.95 423.863 150.83C425.015 153.767 423.549 157.078 420.599 158.199L326.927 193.798C323.775 194.996 320.244 193.432 319.013 190.292Z" fill="url(#paint12_linear_382_478)"/>
</g>
<g filter="url(#filter25_d_382_478)">
<path d="M328.186 214.706C326.931 211.504 328.548 207.898 331.775 206.706L425.777 171.987C428.679 170.916 431.907 172.363 433.036 175.243C434.188 178.181 432.721 181.491 429.772 182.612L336.1 218.211C332.948 219.409 329.417 217.845 328.186 214.706Z" fill="url(#paint13_linear_382_478)"/>
</g>
<g filter="url(#filter26_f_382_478)">
<path d="M319.894 185.064L414.683 149.11L422.331 148.736L324.731 185.305L319.894 185.064Z" fill="white" fill-opacity="0.59"/>
</g>
<g filter="url(#filter27_f_382_478)">
<path d="M329.065 209.478L423.854 173.523L431.503 173.15L333.903 209.719L329.065 209.478Z" fill="white" fill-opacity="0.59"/>
</g>
</g>
<g filter="url(#filter28_d_382_478)">
<g filter="url(#filter29_d_382_478)">
<path d="M172.363 219.709C165.248 199.985 175.083 177.66 194.612 170.167C199.174 168.417 208.861 164.917 232.908 156.378C235.394 155.495 238.208 155.66 240.529 156.859L336.974 206.661L378.927 317.48C386.322 337.014 376.8 358.909 357.412 366.63C330.258 377.442 307.161 386.214 279.385 396.186C260.052 403.126 238.728 393.401 231.127 374.302C209.729 320.528 193.02 276.973 172.363 219.709Z" fill="url(#paint14_linear_382_478)"/>
<path d="M172.363 219.709C165.248 199.985 175.083 177.66 194.612 170.167C199.174 168.417 208.861 164.917 232.908 156.378C235.394 155.495 238.208 155.66 240.529 156.859L336.974 206.661L378.927 317.48C386.322 337.014 376.8 358.909 357.412 366.63C330.258 377.442 307.161 386.214 279.385 396.186C260.052 403.126 238.728 393.401 231.127 374.302C209.729 320.528 193.02 276.973 172.363 219.709Z" fill="url(#paint15_linear_382_478)" fill-opacity="0.2"/>
<path d="M172.363 219.709C165.248 199.985 175.083 177.66 194.612 170.167C199.174 168.417 208.861 164.917 232.908 156.378C235.394 155.495 238.208 155.66 240.529 156.859L336.974 206.661L378.927 317.48C386.322 337.014 376.8 358.909 357.412 366.63C330.258 377.442 307.161 386.214 279.385 396.186C260.052 403.126 238.728 393.401 231.127 374.302C209.729 320.528 193.02 276.973 172.363 219.709Z" stroke="url(#paint16_linear_382_478)" stroke-width="3"/>
</g>
<g filter="url(#filter30_d_382_478)">
<path d="M277.794 226.256C265.659 229.922 252.775 223.027 249.207 210.864C243.014 189.757 240.733 185.514 235.962 162.761C234.991 158.129 239.56 154.308 243.938 156.104C273.603 168.277 296.597 180.407 330.649 199.751C335.083 202.27 334.484 208.839 329.684 210.564C292.586 223.898 301.308 219.153 277.794 226.256Z" fill="url(#paint17_linear_382_478)"/>
</g>
<g filter="url(#filter31_d_382_478)">
<path d="M213.217 277.598C211.958 274.523 213.537 270.951 216.656 269.822L274.09 249.024C276.754 248.059 279.657 249.35 280.733 251.978C281.91 254.853 280.453 258.195 277.548 259.283L220.328 280.712C217.487 281.776 214.369 280.41 213.217 277.598Z" fill="url(#paint18_linear_382_478)"/>
</g>
<g filter="url(#filter32_f_382_478)">
<path d="M214.436 273.787L274.163 251.382L279.337 251.964L217.776 274.606L214.436 273.787Z" fill="white" fill-opacity="0.59"/>
</g>
<g filter="url(#filter33_f_382_478)">
<path d="M217.223 280.594L279.945 256.357L277.129 258.684L219.816 281.068L217.223 280.594Z" fill="#000852" fill-opacity="0.54"/>
</g>
<g filter="url(#filter34_f_382_478)">
<path d="M227.018 305.839L326.901 268.56L324.589 272.837L230.841 307.806L227.018 305.839Z" fill="#000852" fill-opacity="0.26"/>
</g>
<g filter="url(#filter35_f_382_478)">
<path d="M236.12 330.279L336.004 293L333.692 297.277L239.943 332.246L236.12 330.279Z" fill="#000852" fill-opacity="0.26"/>
</g>
<g filter="url(#filter36_f_382_478)">
<path d="M226.593 299.24L318.598 265.294L325.513 266.561L229.672 300.866L226.593 299.24Z" fill="white" fill-opacity="0.59"/>
</g>
<g filter="url(#filter37_f_382_478)">
<path d="M235.694 323.681L327.7 289.735L334.615 291.002L238.773 325.306L235.694 323.681Z" fill="white" fill-opacity="0.59"/>
</g>
<g filter="url(#filter38_d_382_478)">
<path d="M223.391 304.378C222.145 301.173 223.773 297.571 227.003 296.389L321.106 261.944C324.011 260.881 327.234 262.338 328.355 265.221C329.498 268.162 328.022 271.468 325.069 272.581L231.295 307.907C228.139 309.095 224.613 307.521 223.391 304.378Z" fill="url(#paint19_linear_382_478)"/>
</g>
<g filter="url(#filter39_d_382_478)">
<path d="M232.493 328.819C231.246 325.613 232.875 322.012 236.104 320.829L330.208 286.384C333.112 285.321 336.336 286.778 337.457 289.661C338.6 292.602 337.124 295.909 334.171 297.021L240.396 332.347C237.241 333.536 233.714 331.961 232.493 328.819Z" fill="url(#paint20_linear_382_478)"/>
</g>
<g filter="url(#filter40_f_382_478)">
<path d="M224.286 299.153L319.179 263.474L326.829 263.123L229.123 299.408L224.286 299.153Z" fill="white" fill-opacity="0.59"/>
</g>
<g filter="url(#filter41_f_382_478)">
<path d="M233.387 323.593L328.28 287.915L335.929 287.563L238.224 323.848L233.387 323.593Z" fill="white" fill-opacity="0.59"/>
</g>
</g>
<defs>
<filter id="filter0_d_382_478" x="0.578125" y="96.8105" width="277.393" height="309.84" filterUnits="userSpaceOnUse" color-interpolation-filters="sRGB">
<feFlood flood-opacity="0" result="BackgroundImageFix"/>
<feColorMatrix in="SourceAlpha" type="matrix" values="0 0 0 0 0 0 0 0 0 0 0 0 0 0 0 0 0 0 127 0" result="hardAlpha"/>
<feOffset dx="17" dy="-8"/>
<feGaussianBlur stdDeviation="16"/>
<feComposite in2="hardAlpha" operator="out"/>
<feColorMatrix type="matrix" values="0 0 0 0 0 0 0 0 0 0 0 0 0 0 0 0 0 0 0.06 0"/>
<feBlend mode="normal" in2="BackgroundImageFix" result="effect1_dropShadow_382_478"/>
<feBlend mode="normal" in="SourceGraphic" in2="effect1_dropShadow_382_478" result="shape"/>
</filter>
<filter id="filter1_d_382_478" x="8.57812" y="129.811" width="247.393" height="279.84" filterUnits="userSpaceOnUse" color-interpolation-filters="sRGB">
<feFlood flood-opacity="0" result="BackgroundImageFix"/>
<feColorMatrix in="SourceAlpha" type="matrix" values="0 0 0 0 0 0 0 0 0 0 0 0 0 0 0 0 0 0 127 0" result="hardAlpha"/>
<feOffset dx="10" dy="10"/>
<feGaussianBlur stdDeviation="8.5"/>
<feComposite in2="hardAlpha" operator="out"/>
<feColorMatrix type="matrix" values="0 0 0 0 0 0 0 0 0 0 0 0 0 0 0 0 0 0 0.15 0"/>
<feBlend mode="normal" in2="BackgroundImageFix" result="effect1_dropShadow_382_478"/>
<feBlend mode="normal" in="SourceGraphic" in2="effect1_dropShadow_382_478" result="shape"/>
</filter>
<filter id="filter2_d_382_478" x="45.209" y="127.187" width="149.479" height="123.82" filterUnits="userSpaceOnUse" color-interpolation-filters="sRGB">
<feFlood flood-opacity="0" result="BackgroundImageFix"/>
<feColorMatrix in="SourceAlpha" type="matrix" values="0 0 0 0 0 0 0 0 0 0 0 0 0 0 0 0 0 0 127 0" result="hardAlpha"/>
<feOffset dx="-12" dy="15"/>
<feGaussianBlur stdDeviation="13"/>
<feComposite in2="hardAlpha" operator="out"/>
<feColorMatrix type="matrix" values="0 0 0 0 0 0 0 0 0 0 0 0 0 0 0 0 0 0 0.15 0"/>
<feBlend mode="normal" in2="BackgroundImageFix" result="effect1_dropShadow_382_478"/>
<feBlend mode="normal" in="SourceGraphic" in2="effect1_dropShadow_382_478" result="shape"/>
</filter>
<filter id="filter3_d_382_478" x="55.2676" y="231.507" width="76.5254" height="39.9128" filterUnits="userSpaceOnUse" color-interpolation-filters="sRGB">
<feFlood flood-opacity="0" result="BackgroundImageFix"/>
<feColorMatrix in="SourceAlpha" type="matrix" values="0 0 0 0 0 0 0 0 0 0 0 0 0 0 0 0 0 0 127 0" result="hardAlpha"/>
<feOffset dy="4"/>
<feGaussianBlur stdDeviation="2"/>
<feComposite in2="hardAlpha" operator="out"/>
<feColorMatrix type="matrix" values="0 0 0 0 0 0 0 0 0 0 0 0 0 0 0 0 0 0 0.25 0"/>
<feBlend mode="normal" in2="BackgroundImageFix" result="effect1_dropShadow_382_478"/>
<feBlend mode="normal" in="SourceGraphic" in2="effect1_dropShadow_382_478" result="shape"/>
</filter>
<filter id="filter4_f_382_478" x="54.9336" y="228.171" width="77.0723" height="34.7786" filterUnits="userSpaceOnUse" color-interpolation-filters="sRGB">
<feFlood flood-opacity="0" result="BackgroundImageFix"/>
<feBlend mode="normal" in="SourceGraphic" in2="BackgroundImageFix" result="shape"/>
<feGaussianBlur stdDeviation="3" result="effect1_foregroundBlur_382_478"/>
</filter>
<filter id="filter5_f_382_478" x="57.666" y="233.191" width="74.9121" height="36.2361" filterUnits="userSpaceOnUse" color-interpolation-filters="sRGB">
<feFlood flood-opacity="0" result="BackgroundImageFix"/>
<feBlend mode="normal" in="SourceGraphic" in2="BackgroundImageFix" result="shape"/>
<feGaussianBlur stdDeviation="3" result="effect1_foregroundBlur_382_478"/>
</filter>
<filter id="filter6_f_382_478" x="67.2617" y="245.764" width="112.175" height="50.4875" filterUnits="userSpaceOnUse" color-interpolation-filters="sRGB">
<feFlood flood-opacity="0" result="BackgroundImageFix"/>
<feBlend mode="normal" in="SourceGraphic" in2="BackgroundImageFix" result="shape"/>
<feGaussianBlur stdDeviation="3" result="effect1_foregroundBlur_382_478"/>
</filter>
<filter id="filter7_f_382_478" x="76.1709" y="270.275" width="112.175" height="50.4875" filterUnits="userSpaceOnUse" color-interpolation-filters="sRGB">
<feFlood flood-opacity="0" result="BackgroundImageFix"/>
<feBlend mode="normal" in="SourceGraphic" in2="BackgroundImageFix" result="shape"/>
<feGaussianBlur stdDeviation="3" result="effect1_foregroundBlur_382_478"/>
</filter>
<filter id="filter8_f_382_478" x="66.8887" y="242.433" width="111.175" height="46.8689" filterUnits="userSpaceOnUse" color-interpolation-filters="sRGB">
<feFlood flood-opacity="0" result="BackgroundImageFix"/>
<feBlend mode="normal" in="SourceGraphic" in2="BackgroundImageFix" result="shape"/>
<feGaussianBlur stdDeviation="3" result="effect1_foregroundBlur_382_478"/>
</filter>
<filter id="filter9_f_382_478" x="75.7969" y="266.945" width="111.175" height="46.8689" filterUnits="userSpaceOnUse" color-interpolation-filters="sRGB">
<feFlood flood-opacity="0" result="BackgroundImageFix"/>
<feBlend mode="normal" in="SourceGraphic" in2="BackgroundImageFix" result="shape"/>
<feGaussianBlur stdDeviation="3" result="effect1_foregroundBlur_382_478"/>
</filter>
<filter id="filter10_d_382_478" x="65.2441" y="244.771" width="114.042" height="53.9646" filterUnits="userSpaceOnUse" color-interpolation-filters="sRGB">
<feFlood flood-opacity="0" result="BackgroundImageFix"/>
<feColorMatrix in="SourceAlpha" type="matrix" values="0 0 0 0 0 0 0 0 0 0 0 0 0 0 0 0 0 0 127 0" result="hardAlpha"/>
<feOffset dy="4"/>
<feGaussianBlur stdDeviation="2"/>
<feComposite in2="hardAlpha" operator="out"/>
<feColorMatrix type="matrix" values="0 0 0 0 0 0 0 0 0 0 0 0 0 0 0 0 0 0 0.25 0"/>
<feBlend mode="normal" in2="BackgroundImageFix" result="effect1_dropShadow_382_478"/>
<feBlend mode="normal" in="SourceGraphic" in2="effect1_dropShadow_382_478" result="shape"/>
</filter>
<filter id="filter11_d_382_478" x="74.1533" y="269.282" width="114.042" height="53.9646" filterUnits="userSpaceOnUse" color-interpolation-filters="sRGB">
<feFlood flood-opacity="0" result="BackgroundImageFix"/>
<feColorMatrix in="SourceAlpha" type="matrix" values="0 0 0 0 0 0 0 0 0 0 0 0 0 0 0 0 0 0 127 0" result="hardAlpha"/>
<feOffset dy="4"/>
<feGaussianBlur stdDeviation="2"/>
<feComposite in2="hardAlpha" operator="out"/>
<feColorMatrix type="matrix" values="0 0 0 0 0 0 0 0 0 0 0 0 0 0 0 0 0 0 0.25 0"/>
<feBlend mode="normal" in2="BackgroundImageFix" result="effect1_dropShadow_382_478"/>
<feBlend mode="normal" in="SourceGraphic" in2="effect1_dropShadow_382_478" result="shape"/>
</filter>
<filter id="filter12_f_382_478" x="64.5811" y="240.327" width="114.823" height="47.5134" filterUnits="userSpaceOnUse" color-interpolation-filters="sRGB">
<feFlood flood-opacity="0" result="BackgroundImageFix"/>
<feBlend mode="normal" in="SourceGraphic" in2="BackgroundImageFix" result="shape"/>
<feGaussianBlur stdDeviation="3" result="effect1_foregroundBlur_382_478"/>
</filter>
<filter id="filter13_f_382_478" x="73.4912" y="264.838" width="114.823" height="47.5134" filterUnits="userSpaceOnUse" color-interpolation-filters="sRGB">
<feFlood flood-opacity="0" result="BackgroundImageFix"/>
<feBlend mode="normal" in="SourceGraphic" in2="BackgroundImageFix" result="shape"/>
<feGaussianBlur stdDeviation="3" result="effect1_foregroundBlur_382_478"/>
</filter>
<filter id="filter14_d_382_478" x="248.89" y="0.196045" width="278.741" height="309.517" filterUnits="userSpaceOnUse" color-interpolation-filters="sRGB">
<feFlood flood-opacity="0" result="BackgroundImageFix"/>
<feColorMatrix in="SourceAlpha" type="matrix" values="0 0 0 0 0 0 0 0 0 0 0 0 0 0 0 0 0 0 127 0" result="hardAlpha"/>
<feOffset dx="17" dy="-8"/>
<feGaussianBlur stdDeviation="16"/>
<feComposite in2="hardAlpha" operator="out"/>
<feColorMatrix type="matrix" values="0 0 0 0 0 0 0 0 0 0 0 0 0 0 0 0 0 0 0.06 0"/>
<feBlend mode="normal" in2="BackgroundImageFix" result="effect1_dropShadow_382_478"/>
<feBlend mode="normal" in="SourceGraphic" in2="effect1_dropShadow_382_478" result="shape"/>
</filter>
<filter id="filter15_d_382_478" x="256.89" y="33.196" width="248.741" height="279.517" filterUnits="userSpaceOnUse" color-interpolation-filters="sRGB">
<feFlood flood-opacity="0" result="BackgroundImageFix"/>
<feColorMatrix in="SourceAlpha" type="matrix" values="0 0 0 0 0 0 0 0 0 0 0 0 0 0 0 0 0 0 127 0" result="hardAlpha"/>
<feOffset dx="10" dy="10"/>
<feGaussianBlur stdDeviation="8.5"/>
<feComposite in2="hardAlpha" operator="out"/>
<feColorMatrix type="matrix" values="0 0 0 0 0 0 0 0 0 0 0 0 0 0 0 0 0 0 0.15 0"/>
<feBlend mode="normal" in2="BackgroundImageFix" result="effect1_dropShadow_382_478"/>
<feBlend mode="normal" in="SourceGraphic" in2="effect1_dropShadow_382_478" result="shape"/>
</filter>
<filter id="filter16_d_382_478" x="293.035" y="30.5134" width="149.95" height="123.503" filterUnits="userSpaceOnUse" color-interpolation-filters="sRGB">
<feFlood flood-opacity="0" result="BackgroundImageFix"/>
<feColorMatrix in="SourceAlpha" type="matrix" values="0 0 0 0 0 0 0 0 0 0 0 0 0 0 0 0 0 0 127 0" result="hardAlpha"/>
<feOffset dx="-12" dy="15"/>
<feGaussianBlur stdDeviation="13"/>
<feComposite in2="hardAlpha" operator="out"/>
<feColorMatrix type="matrix" values="0 0 0 0 0 0 0 0 0 0 0 0 0 0 0 0 0 0 0.15 0"/>
<feBlend mode="normal" in2="BackgroundImageFix" result="effect1_dropShadow_382_478"/>
<feBlend mode="normal" in="SourceGraphic" in2="effect1_dropShadow_382_478" result="shape"/>
</filter>
<filter id="filter17_d_382_478" x="304.322" y="134.466" width="76.2969" height="40.5347" filterUnits="userSpaceOnUse" color-interpolation-filters="sRGB">
<feFlood flood-opacity="0" result="BackgroundImageFix"/>
<feColorMatrix in="SourceAlpha" type="matrix" values="0 0 0 0 0 0 0 0 0 0 0 0 0 0 0 0 0 0 127 0" result="hardAlpha"/>
<feOffset dy="4"/>
<feGaussianBlur stdDeviation="2"/>
<feComposite in2="hardAlpha" operator="out"/>
<feColorMatrix type="matrix" values="0 0 0 0 0 0 0 0 0 0 0 0 0 0 0 0 0 0 0.25 0"/>
<feBlend mode="normal" in2="BackgroundImageFix" result="effect1_dropShadow_382_478"/>
<feBlend mode="normal" in="SourceGraphic" in2="effect1_dropShadow_382_478" result="shape"/>
</filter>
<filter id="filter18_f_382_478" x="303.971" y="131.148" width="76.8379" height="35.3882" filterUnits="userSpaceOnUse" color-interpolation-filters="sRGB">
<feFlood flood-opacity="0" result="BackgroundImageFix"/>
<feBlend mode="normal" in="SourceGraphic" in2="BackgroundImageFix" result="shape"/>
<feGaussianBlur stdDeviation="3" result="effect1_foregroundBlur_382_478"/>
</filter>
<filter id="filter19_f_382_478" x="306.777" y="136.106" width="74.6523" height="36.8862" filterUnits="userSpaceOnUse" color-interpolation-filters="sRGB">
<feFlood flood-opacity="0" result="BackgroundImageFix"/>
<feBlend mode="normal" in="SourceGraphic" in2="BackgroundImageFix" result="shape"/>
<feGaussianBlur stdDeviation="3" result="effect1_foregroundBlur_382_478"/>
</filter>
<filter id="filter20_f_382_478" x="316.646" y="148.173" width="111.774" height="51.5259" filterUnits="userSpaceOnUse" color-interpolation-filters="sRGB">
<feFlood flood-opacity="0" result="BackgroundImageFix"/>
<feBlend mode="normal" in="SourceGraphic" in2="BackgroundImageFix" result="shape"/>
<feGaussianBlur stdDeviation="3" result="effect1_foregroundBlur_382_478"/>
</filter>
<filter id="filter21_f_382_478" x="325.817" y="172.586" width="111.774" height="51.5259" filterUnits="userSpaceOnUse" color-interpolation-filters="sRGB">
<feFlood flood-opacity="0" result="BackgroundImageFix"/>
<feBlend mode="normal" in="SourceGraphic" in2="BackgroundImageFix" result="shape"/>
<feGaussianBlur stdDeviation="3" result="effect1_foregroundBlur_382_478"/>
</filter>
<filter id="filter22_f_382_478" x="316.201" y="144.932" width="110.825" height="47.8301" filterUnits="userSpaceOnUse" color-interpolation-filters="sRGB">
<feFlood flood-opacity="0" result="BackgroundImageFix"/>
<feBlend mode="normal" in="SourceGraphic" in2="BackgroundImageFix" result="shape"/>
<feGaussianBlur stdDeviation="3" result="effect1_foregroundBlur_382_478"/>
</filter>
<filter id="filter23_f_382_478" x="325.373" y="169.345" width="110.825" height="47.8301" filterUnits="userSpaceOnUse" color-interpolation-filters="sRGB">
<feFlood flood-opacity="0" result="BackgroundImageFix"/>
<feBlend mode="normal" in="SourceGraphic" in2="BackgroundImageFix" result="shape"/>
<feGaussianBlur stdDeviation="3" result="effect1_foregroundBlur_382_478"/>
</filter>
<filter id="filter24_d_382_478" x="314.588" y="147.22" width="113.668" height="54.98" filterUnits="userSpaceOnUse" color-interpolation-filters="sRGB">
<feFlood flood-opacity="0" result="BackgroundImageFix"/>
<feColorMatrix in="SourceAlpha" type="matrix" values="0 0 0 0 0 0 0 0 0 0 0 0 0 0 0 0 0 0 127 0" result="hardAlpha"/>
<feOffset dy="4"/>
<feGaussianBlur stdDeviation="2"/>
<feComposite in2="hardAlpha" operator="out"/>
<feColorMatrix type="matrix" values="0 0 0 0 0 0 0 0 0 0 0 0 0 0 0 0 0 0 0.25 0"/>
<feBlend mode="normal" in2="BackgroundImageFix" result="effect1_dropShadow_382_478"/>
<feBlend mode="normal" in="SourceGraphic" in2="effect1_dropShadow_382_478" result="shape"/>
</filter>
<filter id="filter25_d_382_478" x="323.761" y="171.634" width="113.668" height="54.98" filterUnits="userSpaceOnUse" color-interpolation-filters="sRGB">
<feFlood flood-opacity="0" result="BackgroundImageFix"/>
<feColorMatrix in="SourceAlpha" type="matrix" values="0 0 0 0 0 0 0 0 0 0 0 0 0 0 0 0 0 0 127 0" result="hardAlpha"/>
<feOffset dy="4"/>
<feGaussianBlur stdDeviation="2"/>
<feComposite in2="hardAlpha" operator="out"/>
<feColorMatrix type="matrix" values="0 0 0 0 0 0 0 0 0 0 0 0 0 0 0 0 0 0 0.25 0"/>
<feBlend mode="normal" in2="BackgroundImageFix" result="effect1_dropShadow_382_478"/>
<feBlend mode="normal" in="SourceGraphic" in2="effect1_dropShadow_382_478" result="shape"/>
</filter>
<filter id="filter26_f_382_478" x="313.894" y="142.736" width="114.438" height="48.5693" filterUnits="userSpaceOnUse" color-interpolation-filters="sRGB">
<feFlood flood-opacity="0" result="BackgroundImageFix"/>
<feBlend mode="normal" in="SourceGraphic" in2="BackgroundImageFix" result="shape"/>
<feGaussianBlur stdDeviation="3" result="effect1_foregroundBlur_382_478"/>
</filter>
<filter id="filter27_f_382_478" x="323.065" y="167.15" width="114.438" height="48.5693" filterUnits="userSpaceOnUse" color-interpolation-filters="sRGB">
<feFlood flood-opacity="0" result="BackgroundImageFix"/>
<feBlend mode="normal" in="SourceGraphic" in2="BackgroundImageFix" result="shape"/>
<feGaussianBlur stdDeviation="3" result="effect1_foregroundBlur_382_478"/>
</filter>
<filter id="filter28_d_382_478" x="153.552" y="114.319" width="278.379" height="309.606" filterUnits="userSpaceOnUse" color-interpolation-filters="sRGB">
<feFlood flood-opacity="0" result="BackgroundImageFix"/>
<feColorMatrix in="SourceAlpha" type="matrix" values="0 0 0 0 0 0 0 0 0 0 0 0 0 0 0 0 0 0 127 0" result="hardAlpha"/>
<feOffset dx="17" dy="-8"/>
<feGaussianBlur stdDeviation="16"/>
<feComposite in2="hardAlpha" operator="out"/>
<feColorMatrix type="matrix" values="0 0 0 0 0 0 0 0 0 0 0 0 0 0 0 0 0 0 0.06 0"/>
<feBlend mode="normal" in2="BackgroundImageFix" result="effect1_dropShadow_382_478"/>
<feBlend mode="normal" in="SourceGraphic" in2="effect1_dropShadow_382_478" result="shape"/>
</filter>
<filter id="filter29_d_382_478" x="161.552" y="147.319" width="248.379" height="279.606" filterUnits="userSpaceOnUse" color-interpolation-filters="sRGB">
<feFlood flood-opacity="0" result="BackgroundImageFix"/>
<feColorMatrix in="SourceAlpha" type="matrix" values="0 0 0 0 0 0 0 0 0 0 0 0 0 0 0 0 0 0 127 0" result="hardAlpha"/>
<feOffset dx="10" dy="10"/>
<feGaussianBlur stdDeviation="8.5"/>
<feComposite in2="hardAlpha" operator="out"/>
<feColorMatrix type="matrix" values="0 0 0 0 0 0 0 0 0 0 0 0 0 0 0 0 0 0 0.15 0"/>
<feBlend mode="normal" in2="BackgroundImageFix" result="effect1_dropShadow_382_478"/>
<feBlend mode="normal" in="SourceGraphic" in2="effect1_dropShadow_382_478" result="shape"/>
</filter>
<filter id="filter30_d_382_478" x="197.83" y="144.651" width="149.824" height="123.589" filterUnits="userSpaceOnUse" color-interpolation-filters="sRGB">
<feFlood flood-opacity="0" result="BackgroundImageFix"/>
<feColorMatrix in="SourceAlpha" type="matrix" values="0 0 0 0 0 0 0 0 0 0 0 0 0 0 0 0 0 0 127 0" result="hardAlpha"/>
<feOffset dx="-12" dy="15"/>
<feGaussianBlur stdDeviation="13"/>
<feComposite in2="hardAlpha" operator="out"/>
<feColorMatrix type="matrix" values="0 0 0 0 0 0 0 0 0 0 0 0 0 0 0 0 0 0 0.15 0"/>
<feBlend mode="normal" in2="BackgroundImageFix" result="effect1_dropShadow_382_478"/>
<feBlend mode="normal" in="SourceGraphic" in2="effect1_dropShadow_382_478" result="shape"/>
</filter>
<filter id="filter31_d_382_478" x="208.783" y="248.705" width="76.3584" height="40.3672" filterUnits="userSpaceOnUse" color-interpolation-filters="sRGB">
<feFlood flood-opacity="0" result="BackgroundImageFix"/>
<feColorMatrix in="SourceAlpha" type="matrix" values="0 0 0 0 0 0 0 0 0 0 0 0 0 0 0 0 0 0 127 0" result="hardAlpha"/>
<feOffset dy="4"/>
<feGaussianBlur stdDeviation="2"/>
<feComposite in2="hardAlpha" operator="out"/>
<feColorMatrix type="matrix" values="0 0 0 0 0 0 0 0 0 0 0 0 0 0 0 0 0 0 0.25 0"/>
<feBlend mode="normal" in2="BackgroundImageFix" result="effect1_dropShadow_382_478"/>
<feBlend mode="normal" in="SourceGraphic" in2="effect1_dropShadow_382_478" result="shape"/>
</filter>
<filter id="filter32_f_382_478" x="208.436" y="245.382" width="76.9023" height="35.2239" filterUnits="userSpaceOnUse" color-interpolation-filters="sRGB">
<feFlood flood-opacity="0" result="BackgroundImageFix"/>
<feBlend mode="normal" in="SourceGraphic" in2="BackgroundImageFix" result="shape"/>
<feGaussianBlur stdDeviation="3" result="effect1_foregroundBlur_382_478"/>
</filter>
<filter id="filter33_f_382_478" x="211.223" y="250.356" width="74.7227" height="36.7114" filterUnits="userSpaceOnUse" color-interpolation-filters="sRGB">
<feFlood flood-opacity="0" result="BackgroundImageFix"/>
<feBlend mode="normal" in="SourceGraphic" in2="BackgroundImageFix" result="shape"/>
<feGaussianBlur stdDeviation="3" result="effect1_foregroundBlur_382_478"/>
</filter>
<filter id="filter34_f_382_478" x="221.018" y="262.56" width="111.884" height="51.2463" filterUnits="userSpaceOnUse" color-interpolation-filters="sRGB">
<feFlood flood-opacity="0" result="BackgroundImageFix"/>
<feBlend mode="normal" in="SourceGraphic" in2="BackgroundImageFix" result="shape"/>
<feGaussianBlur stdDeviation="3" result="effect1_foregroundBlur_382_478"/>
</filter>
<filter id="filter35_f_382_478" x="230.12" y="287" width="111.884" height="51.2463" filterUnits="userSpaceOnUse" color-interpolation-filters="sRGB">
<feFlood flood-opacity="0" result="BackgroundImageFix"/>
<feBlend mode="normal" in="SourceGraphic" in2="BackgroundImageFix" result="shape"/>
<feGaussianBlur stdDeviation="3" result="effect1_foregroundBlur_382_478"/>
</filter>
<filter id="filter36_f_382_478" x="220.593" y="259.294" width="110.92" height="47.5713" filterUnits="userSpaceOnUse" color-interpolation-filters="sRGB">
<feFlood flood-opacity="0" result="BackgroundImageFix"/>
<feBlend mode="normal" in="SourceGraphic" in2="BackgroundImageFix" result="shape"/>
<feGaussianBlur stdDeviation="3" result="effect1_foregroundBlur_382_478"/>
</filter>
<filter id="filter37_f_382_478" x="229.694" y="283.735" width="110.92" height="47.5713" filterUnits="userSpaceOnUse" color-interpolation-filters="sRGB">
<feFlood flood-opacity="0" result="BackgroundImageFix"/>
<feBlend mode="normal" in="SourceGraphic" in2="BackgroundImageFix" result="shape"/>
<feGaussianBlur stdDeviation="3" result="effect1_foregroundBlur_382_478"/>
</filter>
<filter id="filter38_d_382_478" x="218.972" y="261.597" width="113.771" height="54.7065" filterUnits="userSpaceOnUse" color-interpolation-filters="sRGB">
<feFlood flood-opacity="0" result="BackgroundImageFix"/>
<feColorMatrix in="SourceAlpha" type="matrix" values="0 0 0 0 0 0 0 0 0 0 0 0 0 0 0 0 0 0 127 0" result="hardAlpha"/>
<feOffset dy="4"/>
<feGaussianBlur stdDeviation="2"/>
<feComposite in2="hardAlpha" operator="out"/>
<feColorMatrix type="matrix" values="0 0 0 0 0 0 0 0 0 0 0 0 0 0 0 0 0 0 0.25 0"/>
<feBlend mode="normal" in2="BackgroundImageFix" result="effect1_dropShadow_382_478"/>
<feBlend mode="normal" in="SourceGraphic" in2="effect1_dropShadow_382_478" result="shape"/>
</filter>
<filter id="filter39_d_382_478" x="228.073" y="286.037" width="113.771" height="54.7065" filterUnits="userSpaceOnUse" color-interpolation-filters="sRGB">
<feFlood flood-opacity="0" result="BackgroundImageFix"/>
<feColorMatrix in="SourceAlpha" type="matrix" values="0 0 0 0 0 0 0 0 0 0 0 0 0 0 0 0 0 0 127 0" result="hardAlpha"/>
<feOffset dy="4"/>
<feGaussianBlur stdDeviation="2"/>
<feComposite in2="hardAlpha" operator="out"/>
<feColorMatrix type="matrix" values="0 0 0 0 0 0 0 0 0 0 0 0 0 0 0 0 0 0 0.25 0"/>
<feBlend mode="normal" in2="BackgroundImageFix" result="effect1_dropShadow_382_478"/>
<feBlend mode="normal" in="SourceGraphic" in2="effect1_dropShadow_382_478" result="shape"/>
</filter>
<filter id="filter40_f_382_478" x="218.286" y="257.123" width="114.543" height="48.2852" filterUnits="userSpaceOnUse" color-interpolation-filters="sRGB">
<feFlood flood-opacity="0" result="BackgroundImageFix"/>
<feBlend mode="normal" in="SourceGraphic" in2="BackgroundImageFix" result="shape"/>
<feGaussianBlur stdDeviation="3" result="effect1_foregroundBlur_382_478"/>
</filter>
<filter id="filter41_f_382_478" x="227.387" y="281.563" width="114.543" height="48.2852" filterUnits="userSpaceOnUse" color-interpolation-filters="sRGB">
<feFlood flood-opacity="0" result="BackgroundImageFix"/>
<feBlend mode="normal" in="SourceGraphic" in2="BackgroundImageFix" result="shape"/>
<feGaussianBlur stdDeviation="3" result="effect1_foregroundBlur_382_478"/>
</filter>
<linearGradient id="paint0_linear_382_478" x1="16.7394" y1="204.113" x2="175.892" y2="161.054" gradientUnits="userSpaceOnUse">
<stop stop-color="#E1E1E1"/>
<stop offset="0.302349" stop-color="#F9F9F9"/>
<stop offset="0.608197" stop-color="#F2F2F2"/>
<stop offset="1" stop-color="#DADADA"/>
</linearGradient>
<linearGradient id="paint1_linear_382_478" x1="65.6297" y1="148.09" x2="156.846" y2="369.048" gradientUnits="userSpaceOnUse">
<stop stop-color="white"/>
<stop offset="0.442708" stop-color="#BCBCBC"/>
<stop offset="1" stop-color="#6B6B6B"/>
</linearGradient>
<linearGradient id="paint2_linear_382_478" x1="65.6297" y1="148.09" x2="116.692" y2="243.706" gradientUnits="userSpaceOnUse">
<stop stop-color="#F1F1F1"/>
<stop offset="1" stop-color="#D9D9DB"/>
</linearGradient>
<linearGradient id="paint3_linear_382_478" x1="177.545" y1="220.301" x2="48.7469" y2="187.712" gradientUnits="userSpaceOnUse">
<stop stop-color="#DFDFDF"/>
<stop offset="0.505208" stop-color="#F7F7F7"/>
<stop offset="0.96875" stop-color="#DFDFDF"/>
</linearGradient>
<linearGradient id="paint4_linear_382_478" x1="90.5367" y1="239.851" x2="96.7971" y2="254.308" gradientUnits="userSpaceOnUse">
<stop stop-color="#E082E8"/>
<stop offset="1" stop-color="#8C2EFF"/>
</linearGradient>
<linearGradient id="paint5_linear_382_478" x1="119.807" y1="261.087" x2="124.551" y2="273.621" gradientUnits="userSpaceOnUse">
<stop stop-color="#E082E8"/>
<stop offset="0.875" stop-color="#8C2EFF"/>
</linearGradient>
<linearGradient id="paint6_linear_382_478" x1="128.717" y1="285.598" x2="133.46" y2="298.133" gradientUnits="userSpaceOnUse">
<stop stop-color="#E082E8"/>
<stop offset="0.875" stop-color="#8C2EFF"/>
</linearGradient>
<linearGradient id="paint7_linear_382_478" x1="265.219" y1="108.217" x2="423.897" y2="63.4418" gradientUnits="userSpaceOnUse">
<stop stop-color="#E1E1E1"/>
<stop offset="0.302349" stop-color="#F9F9F9"/>
<stop offset="0.608197" stop-color="#F2F2F2"/>
<stop offset="1" stop-color="#DADADA"/>
</linearGradient>
<linearGradient id="paint8_linear_382_478" x1="313.502" y1="51.6687" x2="407.099" y2="271.629" gradientUnits="userSpaceOnUse">
<stop stop-color="white"/>
<stop offset="0.442708" stop-color="#BCBCBC"/>
<stop offset="1" stop-color="#6B6B6B"/>
</linearGradient>
<linearGradient id="paint9_linear_382_478" x1="313.502" y1="51.6686" x2="365.594" y2="146.728" gradientUnits="userSpaceOnUse">
<stop stop-color="#F1F1F1"/>
<stop offset="1" stop-color="#D9D9DB"/>
</linearGradient>
<linearGradient id="paint10_linear_382_478" x1="426.189" y1="122.667" x2="297.047" y2="91.4712" gradientUnits="userSpaceOnUse">
<stop stop-color="#DFDFDF"/>
<stop offset="0.505208" stop-color="#F7F7F7"/>
<stop offset="0.96875" stop-color="#DFDFDF"/>
</linearGradient>
<linearGradient id="paint11_linear_382_478" x1="339.396" y1="143.156" x2="345.813" y2="157.544" gradientUnits="userSpaceOnUse">
<stop stop-color="#E082E8"/>
<stop offset="1" stop-color="#8C2EFF"/>
</linearGradient>
<linearGradient id="paint12_linear_382_478" x1="368.895" y1="164.074" x2="373.773" y2="176.557" gradientUnits="userSpaceOnUse">
<stop stop-color="#E082E8"/>
<stop offset="0.875" stop-color="#8C2EFF"/>
</linearGradient>
<linearGradient id="paint13_linear_382_478" x1="378.068" y1="188.488" x2="382.946" y2="200.97" gradientUnits="userSpaceOnUse">
<stop stop-color="#E082E8"/>
<stop offset="0.875" stop-color="#8C2EFF"/>
</linearGradient>
<linearGradient id="paint14_linear_382_478" x1="169.835" y1="222.146" x2="328.643" y2="177.834" gradientUnits="userSpaceOnUse">
<stop stop-color="#E1E1E1"/>
<stop offset="0.302349" stop-color="#F9F9F9"/>
<stop offset="0.608197" stop-color="#F2F2F2"/>
<stop offset="1" stop-color="#DADADA"/>
</linearGradient>
<linearGradient id="paint15_linear_382_478" x1="218.282" y1="165.739" x2="311.238" y2="385.972" gradientUnits="userSpaceOnUse">
<stop stop-color="white"/>
<stop offset="0.442708" stop-color="#BCBCBC"/>
<stop offset="1" stop-color="#6B6B6B"/>
</linearGradient>
<linearGradient id="paint16_linear_382_478" x1="218.282" y1="165.739" x2="270.097" y2="260.95" gradientUnits="userSpaceOnUse">
<stop stop-color="#F1F1F1"/>
<stop offset="1" stop-color="#D9D9DB"/>
</linearGradient>
<linearGradient id="paint17_linear_382_478" x1="330.765" y1="237.065" x2="201.713" y2="205.493" gradientUnits="userSpaceOnUse">
<stop stop-color="#DFDFDF"/>
<stop offset="0.505208" stop-color="#F7F7F7"/>
<stop offset="0.96875" stop-color="#DFDFDF"/>
</linearGradient>
<linearGradient id="paint18_linear_382_478" x1="243.91" y1="257.301" x2="250.284" y2="271.709" gradientUnits="userSpaceOnUse">
<stop stop-color="#E082E8"/>
<stop offset="1" stop-color="#8C2EFF"/>
</linearGradient>
<linearGradient id="paint19_linear_382_478" x1="273.349" y1="278.306" x2="278.191" y2="290.802" gradientUnits="userSpaceOnUse">
<stop stop-color="#E082E8"/>
<stop offset="0.875" stop-color="#8C2EFF"/>
</linearGradient>
<linearGradient id="paint20_linear_382_478" x1="282.45" y1="302.746" x2="287.292" y2="315.242" gradientUnits="userSpaceOnUse">
<stop stop-color="#E082E8"/>
<stop offset="0.875" stop-color="#8C2EFF"/>
</linearGradient>
</defs>
</svg>
