<svg width="52" height="53" viewBox="0 0 52 53" fill="none" xmlns="http://www.w3.org/2000/svg">
<g filter="url(#filter0_d_263_215)">
<path fill-rule="evenodd" clip-rule="evenodd" d="M5.59375 9.34375C5.59375 7.75593 6.88093 6.46875 8.46875 6.46875H41.5312C43.1191 6.46875 44.4062 7.75593 44.4062 9.34375V31.625C44.4062 33.2128 43.1191 34.5 41.5312 34.5H40.0937L40.0938 38.0938C40.0938 38.098 40.0937 38.1022 40.0937 38.1065C40.0888 39.3568 39.3627 40.2797 38.4164 40.7082C38.236 40.791 38.0454 40.8557 37.8472 40.8999C37.5741 40.9622 37.2919 40.9863 37.0107 40.9688H35.5221C34.3133 40.9688 33.1599 40.4614 32.3431 39.5703L27.6953 34.5H8.46875C6.88093 34.5 5.59375 33.2128 5.59375 31.625V9.34375Z" fill="black"/>
<path d="M7.42482 38.5525C7.67626 37.9408 8.54249 37.9408 8.79393 38.5525L9.28568 39.7487C9.36084 39.9315 9.506 40.0767 9.68882 40.1518L10.885 40.6436C11.4967 40.895 11.4967 41.7612 10.885 42.0127L9.68882 42.5044C9.506 42.5796 9.36084 42.7247 9.28568 42.9076L8.79393 44.1038C8.54249 44.7154 7.67626 44.7154 7.42482 44.1038L6.93307 42.9076C6.85791 42.7247 6.71275 42.5796 6.52993 42.5044L5.33373 42.0127C4.72209 41.7612 4.72209 40.895 5.33373 40.6436L6.52993 40.1518C6.71275 40.0767 6.85791 39.9315 6.93307 39.7487L7.42482 38.5525Z" fill="black"/>
<path d="M45.5019 37.8449C45.7594 37.2184 46.6468 37.2184 46.9044 37.8449L46.9664 37.9957C47.0433 38.1829 47.1921 38.3317 47.3793 38.4086L47.5301 38.4706C48.1566 38.7282 48.1566 39.6156 47.5301 39.8731L47.3793 39.9351C47.1921 40.0121 47.0433 40.1608 46.9664 40.3481L46.9044 40.4988C46.6468 41.1254 45.7594 41.1254 45.5019 40.4988L45.4399 40.3481C45.3629 40.1608 45.2142 40.0121 45.0269 39.9351L44.8762 39.8731C44.2496 39.6156 44.2496 38.7282 44.8762 38.4706L45.0269 38.4086C45.2142 38.3317 45.3629 38.1829 45.4399 37.9957L45.5019 37.8449Z" fill="black"/>
<path d="M44.0752 1.18141C44.3288 0.564528 45.2025 0.564528 45.4561 1.18142L45.7345 1.85885C45.8103 2.04325 45.9568 2.18965 46.1411 2.26546L46.8186 2.54394C47.4355 2.79754 47.4355 3.67121 46.8186 3.92481L46.1411 4.20329C45.9568 4.2791 45.8103 4.4255 45.7345 4.6099L45.4561 5.28733C45.2025 5.90422 44.3288 5.90422 44.0752 5.28733L43.7967 4.6099C43.7209 4.4255 43.5745 4.2791 43.3901 4.20329L42.7127 3.92481C42.0958 3.67121 42.0958 2.79754 42.7127 2.54394L43.3901 2.26546C43.5745 2.18965 43.7209 2.04325 43.7967 1.85885L44.0752 1.18141Z" fill="black"/>
<path fill-rule="evenodd" clip-rule="evenodd" d="M31.6484 33.0625L36.0687 38.9563C36.8976 40.0614 38.6562 39.4752 38.6562 38.0938V33.0625H41.5312C42.3252 33.0625 42.9688 32.4189 42.9688 31.625V9.34375C42.9688 8.54984 42.3252 7.90625 41.5312 7.90625H13.5C12.7061 7.90625 12.0625 8.54984 12.0625 9.34375V31.625C12.0625 32.4189 12.7061 33.0625 13.5 33.0625H31.6484ZM19.6094 23.7188C21.3957 23.7188 22.8438 22.2707 22.8438 20.4844C22.8438 18.6981 21.3957 17.25 19.6094 17.25C17.8231 17.25 16.375 18.6981 16.375 20.4844C16.375 22.2707 17.8231 23.7188 19.6094 23.7188ZM30.75 20.4844C30.75 22.2707 29.3019 23.7188 27.5156 23.7188C25.7293 23.7188 24.2812 22.2707 24.2812 20.4844C24.2812 18.6981 25.7293 17.25 27.5156 17.25C29.3019 17.25 30.75 18.6981 30.75 20.4844ZM35.4219 23.7188C37.2082 23.7188 38.6562 22.2707 38.6562 20.4844C38.6562 18.6981 37.2082 17.25 35.4219 17.25C33.6356 17.25 32.1875 18.6981 32.1875 20.4844C32.1875 22.2707 33.6356 23.7188 35.4219 23.7188Z" fill="#D678EB"/>
<path d="M21.4062 20.4844C21.4062 21.4768 20.6018 22.2812 19.6094 22.2812C18.617 22.2812 17.8125 21.4768 17.8125 20.4844C17.8125 19.492 18.617 18.6875 19.6094 18.6875C20.6018 18.6875 21.4062 19.492 21.4062 20.4844Z" fill="#F1EEE1"/>
<path d="M29.3125 20.4844C29.3125 21.4768 28.508 22.2812 27.5156 22.2812C26.5232 22.2812 25.7188 21.4768 25.7188 20.4844C25.7188 19.492 26.5232 18.6875 27.5156 18.6875C28.508 18.6875 29.3125 19.492 29.3125 20.4844Z" fill="#F1EEE1"/>
<path d="M37.2188 20.4844C37.2188 21.4768 36.4143 22.2812 35.4219 22.2812C34.4295 22.2812 33.625 21.4768 33.625 20.4844C33.625 19.492 34.4295 18.6875 35.4219 18.6875C36.4143 18.6875 37.2188 19.492 37.2188 20.4844Z" fill="#F1EEE1"/>
</g>
<defs>
<filter id="filter0_d_263_215" x="-2" y="0" width="54" height="54" filterUnits="userSpaceOnUse" color-interpolation-filters="sRGB">
<feFlood flood-opacity="0" result="BackgroundImageFix"/>
<feColorMatrix in="SourceAlpha" type="matrix" values="0 0 0 0 0 0 0 0 0 0 0 0 0 0 0 0 0 0 127 0" result="hardAlpha"/>
<feOffset dy="4"/>
<feGaussianBlur stdDeviation="2"/>
<feComposite in2="hardAlpha" operator="out"/>
<feColorMatrix type="matrix" values="0 0 0 0 0 0 0 0 0 0 0 0 0 0 0 0 0 0 0.25 0"/>
<feBlend mode="normal" in2="BackgroundImageFix" result="effect1_dropShadow_263_215"/>
<feBlend mode="normal" in="SourceGraphic" in2="effect1_dropShadow_263_215" result="shape"/>
</filter>
</defs>
</svg>
