<svg width="64" height="64" viewBox="0 0 64 64" fill="none" xmlns="http://www.w3.org/2000/svg">
<path d="M13 9C8.58172 9 5 12.5817 5 17V42C5 46.4183 8.58172 50 13 50H23V56C23 57.6569 24.3431 59 26 59H39C40.6569 59 42 57.6569 42 56V51C42 50.6494 41.9398 50.3128 41.8293 50H51C55.4183 50 59 46.4183 59 42V17C59 12.5817 55.4183 9 51 9H13Z" fill="black"/>
<path d="M5.54757 53.6382C5.8974 52.7873 7.1026 52.7873 7.45243 53.6382L8.1366 55.3025C8.24116 55.5569 8.44313 55.7589 8.69749 55.8634L10.3618 56.5476C11.2127 56.8974 11.2127 58.1026 10.3618 58.4525L8.69749 59.1366C8.44313 59.2412 8.24116 59.4432 8.1366 59.6975L7.45243 61.3618C7.1026 62.2128 5.8974 62.2128 5.54757 61.3618L4.8634 59.6975C4.75884 59.4432 4.55687 59.2412 4.30251 59.1366L2.63823 58.4525C1.78726 58.1026 1.78726 56.8974 2.63823 56.5476L4.30251 55.8634C4.55687 55.7589 4.75884 55.5569 4.8634 55.3025L5.54757 53.6382Z" fill="black"/>
<path d="M58.5394 0.643713C58.8922 -0.214572 60.1078 -0.214571 60.4606 0.643714L60.8481 1.58625C60.9535 1.84279 61.1572 2.04649 61.4138 2.15196L62.3563 2.53942C63.2146 2.89226 63.2146 4.10781 62.3563 4.46064L61.4138 4.84811C61.1572 4.95357 60.9535 5.15727 60.8481 5.41382L60.4606 6.35635C60.1078 7.21463 58.8922 7.21463 58.5394 6.35635L58.1519 5.41382C58.0465 5.15727 57.8428 4.95357 57.5862 4.84811L56.6437 4.46064C55.7854 4.10781 55.7854 2.89226 56.6437 2.53942L57.5862 2.15196C57.8428 2.04649 58.0465 1.84279 58.1519 1.58625L58.5394 0.643713Z" fill="black"/>
<path fill-rule="evenodd" clip-rule="evenodd" d="M51 11H19C15.6863 11 13 13.6863 13 17V42C13 45.3137 15.6863 48 19 48H51C54.3137 48 57 45.3137 57 42V17C57 13.6863 54.3137 11 51 11ZM20 14C17.7909 14 16 15.7909 16 18V41C16 43.2091 17.7909 45 20 45H50C52.2091 45 54 43.2091 54 41V18C54 15.7909 52.2091 14 50 14H20Z" fill="#E082E8"/>
<path d="M37 30C37 31.1046 36.1046 32 35 32C33.8954 32 33 31.1046 33 30C33 28.8955 33.8954 28 35 28C36.1046 28 37 28.8955 37 30Z" fill="#FDFDFC"/>
<path d="M38.911 33.6607C38.7015 33.7204 38.5495 33.4157 38.699 33.2573C39.5073 32.4012 40 31.2635 40 30.0148C40 28.7754 39.5145 27.6452 38.7169 26.7913C38.5665 26.6304 38.7256 26.3191 38.9359 26.3845C40.58 26.8951 41.9708 27.6377 43.0334 28.3298C44.3499 29.1873 44.3148 31.0949 42.9698 31.896C41.91 32.5271 40.5332 33.1985 38.911 33.6607Z" fill="#FDFDFC"/>
<path d="M31.4177 33.3768C31.5729 33.5304 31.4306 33.8406 31.2191 33.7866C29.915 33.4535 28.5561 32.9206 27.1584 32.1324C25.6455 31.2792 25.6062 28.9897 27.0894 28.0748C28.5079 27.1997 29.8868 26.6101 31.2094 26.2431C31.4221 26.184 31.57 26.5017 31.4133 26.6572C30.5386 27.5251 30 28.7093 30 30.0148C30 31.3225 30.5404 32.5086 31.4177 33.3768Z" fill="#FDFDFC"/>
<path d="M31 50H40V56C40 56.5523 39.5523 57 39 57H32C31.4477 57 31 56.5523 31 56V50Z" fill="#FDFDFC"/>
</svg>
