<svg width="64" height="64" viewBox="0 0 64 64" fill="none" xmlns="http://www.w3.org/2000/svg">
<path fill-rule="evenodd" clip-rule="evenodd" d="M36.0005 2H42.0005V2.00928C42.8383 2.01395 43.6884 2.19629 44.5117 2.59319C46.2806 3.44599 47.2459 5.03033 47.5403 6.74128C47.8312 8.43176 47.4813 10.2803 46.618 11.8428L45.9702 13.0155C44.6959 15.3221 43.3118 17.8277 42.3354 19.5787C43.8816 19.5268 45.323 19.8775 46.5734 20.619C48.2291 21.6009 49.4548 23.2114 50.1484 25.2619C52.0186 25.5064 53.6051 25.9245 54.8742 26.7151C56.3507 27.6349 57.2946 28.9918 57.8344 30.8652C58.3947 32.8098 57.8322 34.7759 56.9488 36.3388L47.9569 52.2476L47.2102 53.7409C45.5987 56.9639 42.3045 58.9999 38.701 58.9999L8.13438 58.9999C5.14299 58.9999 3.18026 55.8729 4.48077 53.179L7.8192 46.2637C8.67356 44.494 10.3743 43.4274 12.1852 43.29C9.92352 40.3712 8.64013 36.7414 8.64014 32.9287L8.64016 26.0023C8.64017 23.2094 10.9043 20.9452 13.6972 20.9452L20.7156 20.9452L29.5382 5.70627C30.8433 3.45197 33.3884 1.85424 36.0005 2.02111V2Z" fill="black"/>
<path d="M15.5399 7.6437C15.8927 6.78543 17.1083 6.78543 17.4611 7.6437L17.8485 8.58622C17.954 8.84276 18.1577 9.04646 18.4143 9.15192L19.3568 9.53938C20.2151 9.8922 20.2151 11.1077 19.3568 11.4606L18.4143 11.848C18.1577 11.9535 17.954 12.1572 17.8485 12.4137L17.4611 13.3562C17.1083 14.2145 15.8927 14.2145 15.5399 13.3562L15.1524 12.4137C15.047 12.1572 14.8433 11.9535 14.5867 11.848L13.6442 11.4606C12.7859 11.1077 12.7859 9.8922 13.6442 9.53938L14.5867 9.15192C14.8433 9.04646 15.047 8.84276 15.1524 8.58622L15.5399 7.6437Z" fill="black"/>
<path d="M56.5481 3.63823C56.8979 2.78726 58.1031 2.78726 58.4529 3.63823L59.1371 5.30249C59.2416 5.55685 59.4436 5.75882 59.698 5.86338L61.3623 6.54755C62.2132 6.89737 62.2132 8.10257 61.3623 8.45239L59.698 9.13655C59.4436 9.24112 59.2416 9.44308 59.1371 9.69745L58.4529 11.3617C58.1031 12.2127 56.8979 12.2127 56.5481 11.3617L55.8639 9.69744C55.7593 9.44308 55.5574 9.24112 55.303 9.13655L53.6387 8.45239C52.7877 8.10257 52.7877 6.89737 53.6387 6.54755L55.303 5.86338C55.5574 5.75882 55.7593 5.55685 55.8639 5.30249L56.5481 3.63823Z" fill="black"/>
<path d="M56.5248 49.6538C56.8832 48.7821 58.1178 48.7821 58.4762 49.6538L58.5624 49.8635C58.6695 50.1241 58.8764 50.331 59.137 50.4381L59.3467 50.5243C60.2184 50.8827 60.2184 52.1173 59.3467 52.4756L59.137 52.5618C58.8764 52.669 58.6695 52.8758 58.5624 53.1364L58.4762 53.3461C58.1178 54.2179 56.8832 54.2179 56.5248 53.3461L56.4386 53.1364C56.3315 52.8758 56.1246 52.669 55.864 52.5618L55.6543 52.4756C54.7826 52.1173 54.7826 50.8827 55.6543 50.5243L55.864 50.4381C56.1246 50.331 56.3315 50.1241 56.4386 49.8635L56.5248 49.6538Z" fill="black"/>
<path d="M17.0967 26.0023C17.0967 24.3769 18.4143 23.0593 20.0396 23.0593H25.8117L24.0912 25.9608C23.7934 26.4629 23.9591 27.1114 24.4613 27.4092C24.9634 27.7069 25.6119 27.5413 25.9097 27.0391L28.5767 22.5414L37.7102 6.76549C38.9814 4.56975 41.5793 3.52645 43.5935 4.49749C44.6455 5.00468 45.2576 5.94288 45.4567 7.09975C45.6593 8.27707 45.4188 9.64159 44.7675 10.8202L44.1239 11.9852C42.2475 15.3819 40.1495 19.1797 39.4538 20.3874L38.4157 21.9445C38.0919 22.4302 38.2232 23.0865 38.7089 23.4104C39.1947 23.7342 39.851 23.6029 40.1748 23.1172L41.0038 21.8737C42.7781 21.4802 44.3015 21.7296 45.4949 22.4373C46.6826 23.1416 47.6444 24.36 48.1946 26.088L47.0897 27.9634C46.7933 28.4664 46.9608 29.1143 47.4638 29.4107C47.9668 29.707 48.6148 29.5395 48.9112 29.0365L49.8982 27.3613C51.6242 27.5893 52.858 27.9499 53.7562 28.5095C54.715 29.1067 55.3815 29.9881 55.8028 31.4505C56.1483 32.6496 55.8347 34.0132 55.1083 35.2984L44.7023 53.709C43.8351 55.2432 41.8833 55.7761 40.3568 54.8954L24.5003 45.7474C19.9191 43.1045 17.0967 38.2176 17.0967 32.9287L17.0967 26.0023Z" fill="#E082E8"/>
<path d="M16.0653 47.183C16.8679 45.5205 18.9153 44.8922 20.5122 45.8185L37.8943 55.9001C38.3616 56.1711 38.1693 56.8858 37.6291 56.8858L13.0652 56.8858C12.2858 56.8858 11.7744 56.0711 12.1133 55.3692L16.0653 47.183Z" fill="#FDFDFC"/>
</svg>
